<mxfile host="app.diagrams.net" agent="Mozilla/5.0 (Windows NT 10.0; Win64; x64) AppleWebKit/537.36 (KHTML, like Gecko) Chrome/133.0.0.0 Safari/537.36" version="26.0.16">
  <diagram name="Trang-1" id="ZTEf5k2u-yT7QT4qtRUc">
    <mxGraphModel grid="1" page="1" gridSize="10" guides="1" tooltips="1" connect="1" arrows="1" fold="1" pageScale="1" pageWidth="827" pageHeight="1169" math="0" shadow="0">
      <root>
        <mxCell id="0" />
        <mxCell id="1" parent="0" />
        <mxCell id="kykVUpYEriu8e2mIOXpI-62" style="edgeStyle=orthogonalEdgeStyle;rounded=0;orthogonalLoop=1;jettySize=auto;html=1;exitX=0;exitY=0.5;exitDx=0;exitDy=0;entryX=1;entryY=0.5;entryDx=0;entryDy=0;" edge="1" parent="1" source="kykVUpYEriu8e2mIOXpI-2" target="kykVUpYEriu8e2mIOXpI-61">
          <mxGeometry relative="1" as="geometry" />
        </mxCell>
        <mxCell id="kykVUpYEriu8e2mIOXpI-63" style="edgeStyle=orthogonalEdgeStyle;rounded=0;orthogonalLoop=1;jettySize=auto;html=1;exitX=0;exitY=0.5;exitDx=0;exitDy=0;entryX=1;entryY=0.5;entryDx=0;entryDy=0;" edge="1" parent="1" source="kykVUpYEriu8e2mIOXpI-2" target="kykVUpYEriu8e2mIOXpI-57">
          <mxGeometry relative="1" as="geometry" />
        </mxCell>
        <mxCell id="kykVUpYEriu8e2mIOXpI-65" style="edgeStyle=orthogonalEdgeStyle;rounded=0;orthogonalLoop=1;jettySize=auto;html=1;exitX=0;exitY=0.5;exitDx=0;exitDy=0;entryX=1;entryY=0.5;entryDx=0;entryDy=0;" edge="1" parent="1" source="kykVUpYEriu8e2mIOXpI-2" target="kykVUpYEriu8e2mIOXpI-59">
          <mxGeometry relative="1" as="geometry" />
        </mxCell>
        <mxCell id="kykVUpYEriu8e2mIOXpI-66" style="edgeStyle=orthogonalEdgeStyle;rounded=0;orthogonalLoop=1;jettySize=auto;html=1;exitX=0;exitY=0.5;exitDx=0;exitDy=0;entryX=1;entryY=0.5;entryDx=0;entryDy=0;" edge="1" parent="1" source="kykVUpYEriu8e2mIOXpI-2" target="kykVUpYEriu8e2mIOXpI-60">
          <mxGeometry relative="1" as="geometry" />
        </mxCell>
        <mxCell id="kykVUpYEriu8e2mIOXpI-2" value="" style="rounded=0;whiteSpace=wrap;html=1;" vertex="1" parent="1">
          <mxGeometry x="320" y="220" width="120" height="30" as="geometry" />
        </mxCell>
        <mxCell id="TvyI1OkQRVAZPM0vmnl8-29" style="edgeStyle=orthogonalEdgeStyle;rounded=0;orthogonalLoop=1;jettySize=auto;html=1;exitX=0;exitY=0.5;exitDx=0;exitDy=0;entryX=0.25;entryY=1;entryDx=0;entryDy=0;" edge="1" parent="1" source="TvyI1OkQRVAZPM0vmnl8-3" target="TvyI1OkQRVAZPM0vmnl8-27">
          <mxGeometry relative="1" as="geometry">
            <Array as="points">
              <mxPoint x="350" y="585" />
            </Array>
          </mxGeometry>
        </mxCell>
        <mxCell id="TvyI1OkQRVAZPM0vmnl8-110" style="edgeStyle=orthogonalEdgeStyle;rounded=0;orthogonalLoop=1;jettySize=auto;html=1;exitX=0.25;exitY=1;exitDx=0;exitDy=0;entryX=0.25;entryY=1;entryDx=0;entryDy=0;" edge="1" parent="1" target="TvyI1OkQRVAZPM0vmnl8-3">
          <mxGeometry relative="1" as="geometry">
            <mxPoint x="290" y="629.948717948718" as="sourcePoint" />
          </mxGeometry>
        </mxCell>
        <mxCell id="TvyI1OkQRVAZPM0vmnl8-111" style="edgeStyle=orthogonalEdgeStyle;rounded=0;orthogonalLoop=1;jettySize=auto;html=1;" edge="1" parent="1" target="TvyI1OkQRVAZPM0vmnl8-3">
          <mxGeometry relative="1" as="geometry">
            <mxPoint x="290" y="660" as="sourcePoint" />
            <Array as="points">
              <mxPoint x="290" y="661" />
            </Array>
          </mxGeometry>
        </mxCell>
        <mxCell id="TvyI1OkQRVAZPM0vmnl8-112" style="edgeStyle=orthogonalEdgeStyle;rounded=0;orthogonalLoop=1;jettySize=auto;html=1;exitX=0.75;exitY=1;exitDx=0;exitDy=0;entryX=0.75;entryY=1;entryDx=0;entryDy=0;" edge="1" parent="1" target="TvyI1OkQRVAZPM0vmnl8-3">
          <mxGeometry relative="1" as="geometry">
            <mxPoint x="290" y="689.948717948718" as="sourcePoint" />
          </mxGeometry>
        </mxCell>
        <mxCell id="TvyI1OkQRVAZPM0vmnl8-148" style="edgeStyle=orthogonalEdgeStyle;rounded=0;orthogonalLoop=1;jettySize=auto;html=1;exitX=0;exitY=0.5;exitDx=0;exitDy=0;entryX=0.5;entryY=0;entryDx=0;entryDy=0;" edge="1" parent="1" source="TvyI1OkQRVAZPM0vmnl8-3" target="TvyI1OkQRVAZPM0vmnl8-146">
          <mxGeometry relative="1" as="geometry">
            <Array as="points">
              <mxPoint x="350" y="560" />
              <mxPoint x="230" y="560" />
            </Array>
          </mxGeometry>
        </mxCell>
        <mxCell id="TvyI1OkQRVAZPM0vmnl8-154" style="edgeStyle=orthogonalEdgeStyle;rounded=0;orthogonalLoop=1;jettySize=auto;html=1;exitX=0;exitY=0.5;exitDx=0;exitDy=0;entryX=0.25;entryY=1;entryDx=0;entryDy=0;" edge="1" parent="1" source="TvyI1OkQRVAZPM0vmnl8-3" target="TvyI1OkQRVAZPM0vmnl8-153">
          <mxGeometry relative="1" as="geometry" />
        </mxCell>
        <mxCell id="TvyI1OkQRVAZPM0vmnl8-3" value="count" style="rounded=0;whiteSpace=wrap;html=1;direction=south;" vertex="1" parent="1">
          <mxGeometry x="320" y="600" width="60" height="120" as="geometry" />
        </mxCell>
        <mxCell id="TvyI1OkQRVAZPM0vmnl8-9" style="edgeStyle=orthogonalEdgeStyle;rounded=0;orthogonalLoop=1;jettySize=auto;html=1;exitX=1;exitY=0.5;exitDx=0;exitDy=0;" edge="1" parent="1" source="TvyI1OkQRVAZPM0vmnl8-7" target="TvyI1OkQRVAZPM0vmnl8-8">
          <mxGeometry relative="1" as="geometry" />
        </mxCell>
        <mxCell id="TvyI1OkQRVAZPM0vmnl8-7" value="comp" style="rounded=0;whiteSpace=wrap;html=1;" vertex="1" parent="1">
          <mxGeometry x="480" y="180" width="80" height="40" as="geometry" />
        </mxCell>
        <mxCell id="TvyI1OkQRVAZPM0vmnl8-14" style="edgeStyle=orthogonalEdgeStyle;rounded=0;orthogonalLoop=1;jettySize=auto;html=1;exitX=0.5;exitY=1;exitDx=0;exitDy=0;" edge="1" parent="1" source="TvyI1OkQRVAZPM0vmnl8-8" target="TvyI1OkQRVAZPM0vmnl8-18">
          <mxGeometry relative="1" as="geometry">
            <mxPoint x="600" y="520" as="targetPoint" />
          </mxGeometry>
        </mxCell>
        <mxCell id="TvyI1OkQRVAZPM0vmnl8-134" style="edgeStyle=orthogonalEdgeStyle;rounded=0;orthogonalLoop=1;jettySize=auto;html=1;exitX=0;exitY=0.25;exitDx=0;exitDy=0;entryX=0;entryY=0.25;entryDx=0;entryDy=0;" edge="1" parent="1" target="TvyI1OkQRVAZPM0vmnl8-8">
          <mxGeometry relative="1" as="geometry">
            <mxPoint x="540" y="380.2380952380952" as="sourcePoint" />
          </mxGeometry>
        </mxCell>
        <mxCell id="TvyI1OkQRVAZPM0vmnl8-135" style="edgeStyle=orthogonalEdgeStyle;rounded=0;orthogonalLoop=1;jettySize=auto;html=1;exitX=0;exitY=0.5;exitDx=0;exitDy=0;entryX=0;entryY=0.5;entryDx=0;entryDy=0;" edge="1" parent="1" target="TvyI1OkQRVAZPM0vmnl8-8">
          <mxGeometry relative="1" as="geometry">
            <mxPoint x="540" y="400.2380952380952" as="sourcePoint" />
          </mxGeometry>
        </mxCell>
        <mxCell id="TvyI1OkQRVAZPM0vmnl8-136" style="edgeStyle=orthogonalEdgeStyle;rounded=0;orthogonalLoop=1;jettySize=auto;html=1;exitX=0;exitY=0.75;exitDx=0;exitDy=0;entryX=0;entryY=0.75;entryDx=0;entryDy=0;" edge="1" parent="1" target="TvyI1OkQRVAZPM0vmnl8-8">
          <mxGeometry relative="1" as="geometry">
            <mxPoint x="540" y="420.2380952380952" as="sourcePoint" />
          </mxGeometry>
        </mxCell>
        <mxCell id="TvyI1OkQRVAZPM0vmnl8-8" value="countK" style="rounded=0;whiteSpace=wrap;html=1;" vertex="1" parent="1">
          <mxGeometry x="560" y="360" width="80" height="80" as="geometry" />
        </mxCell>
        <mxCell id="TvyI1OkQRVAZPM0vmnl8-11" style="edgeStyle=orthogonalEdgeStyle;rounded=0;orthogonalLoop=1;jettySize=auto;html=1;exitX=1;exitY=0.5;exitDx=0;exitDy=0;entryX=0.5;entryY=0;entryDx=0;entryDy=0;" edge="1" parent="1" source="TvyI1OkQRVAZPM0vmnl8-7" target="TvyI1OkQRVAZPM0vmnl8-10">
          <mxGeometry relative="1" as="geometry" />
        </mxCell>
        <mxCell id="TvyI1OkQRVAZPM0vmnl8-28" style="edgeStyle=orthogonalEdgeStyle;rounded=0;orthogonalLoop=1;jettySize=auto;html=1;exitX=1;exitY=0.5;exitDx=0;exitDy=0;entryX=0.75;entryY=1;entryDx=0;entryDy=0;" edge="1" parent="1" source="TvyI1OkQRVAZPM0vmnl8-10" target="TvyI1OkQRVAZPM0vmnl8-27">
          <mxGeometry relative="1" as="geometry">
            <Array as="points">
              <mxPoint x="780" y="400" />
              <mxPoint x="780" y="470" />
              <mxPoint x="410" y="470" />
            </Array>
          </mxGeometry>
        </mxCell>
        <mxCell id="TvyI1OkQRVAZPM0vmnl8-131" style="edgeStyle=orthogonalEdgeStyle;rounded=0;orthogonalLoop=1;jettySize=auto;html=1;exitX=0;exitY=0.25;exitDx=0;exitDy=0;entryX=0;entryY=0.25;entryDx=0;entryDy=0;" edge="1" parent="1" target="TvyI1OkQRVAZPM0vmnl8-10">
          <mxGeometry relative="1" as="geometry">
            <mxPoint x="660" y="380.2380952380952" as="sourcePoint" />
          </mxGeometry>
        </mxCell>
        <mxCell id="TvyI1OkQRVAZPM0vmnl8-132" style="edgeStyle=orthogonalEdgeStyle;rounded=0;orthogonalLoop=1;jettySize=auto;html=1;exitX=0;exitY=0.5;exitDx=0;exitDy=0;entryX=0;entryY=0.5;entryDx=0;entryDy=0;" edge="1" parent="1" target="TvyI1OkQRVAZPM0vmnl8-10">
          <mxGeometry relative="1" as="geometry">
            <mxPoint x="660" y="400.2380952380952" as="sourcePoint" />
          </mxGeometry>
        </mxCell>
        <mxCell id="TvyI1OkQRVAZPM0vmnl8-133" style="edgeStyle=orthogonalEdgeStyle;rounded=0;orthogonalLoop=1;jettySize=auto;html=1;exitX=0;exitY=0.75;exitDx=0;exitDy=0;entryX=0;entryY=0.75;entryDx=0;entryDy=0;" edge="1" parent="1" target="TvyI1OkQRVAZPM0vmnl8-10">
          <mxGeometry relative="1" as="geometry">
            <mxPoint x="660" y="420.2380952380952" as="sourcePoint" />
          </mxGeometry>
        </mxCell>
        <mxCell id="kykVUpYEriu8e2mIOXpI-12" style="edgeStyle=orthogonalEdgeStyle;rounded=0;orthogonalLoop=1;jettySize=auto;html=1;exitX=1;exitY=0.5;exitDx=0;exitDy=0;entryX=0;entryY=0.5;entryDx=0;entryDy=0;" edge="1" parent="1" source="TvyI1OkQRVAZPM0vmnl8-10" target="kykVUpYEriu8e2mIOXpI-6">
          <mxGeometry relative="1" as="geometry" />
        </mxCell>
        <mxCell id="kykVUpYEriu8e2mIOXpI-13" style="edgeStyle=orthogonalEdgeStyle;rounded=0;orthogonalLoop=1;jettySize=auto;html=1;exitX=1;exitY=0.5;exitDx=0;exitDy=0;entryX=0;entryY=0.5;entryDx=0;entryDy=0;" edge="1" parent="1" source="TvyI1OkQRVAZPM0vmnl8-10" target="kykVUpYEriu8e2mIOXpI-8">
          <mxGeometry relative="1" as="geometry" />
        </mxCell>
        <mxCell id="kykVUpYEriu8e2mIOXpI-14" style="edgeStyle=orthogonalEdgeStyle;rounded=0;orthogonalLoop=1;jettySize=auto;html=1;exitX=1;exitY=0.5;exitDx=0;exitDy=0;entryX=0;entryY=0.5;entryDx=0;entryDy=0;" edge="1" parent="1" source="TvyI1OkQRVAZPM0vmnl8-10" target="kykVUpYEriu8e2mIOXpI-10">
          <mxGeometry relative="1" as="geometry" />
        </mxCell>
        <mxCell id="kykVUpYEriu8e2mIOXpI-17" style="edgeStyle=orthogonalEdgeStyle;rounded=0;orthogonalLoop=1;jettySize=auto;html=1;exitX=1;exitY=0.5;exitDx=0;exitDy=0;entryX=0;entryY=0.5;entryDx=0;entryDy=0;" edge="1" parent="1" source="TvyI1OkQRVAZPM0vmnl8-10" target="kykVUpYEriu8e2mIOXpI-15">
          <mxGeometry relative="1" as="geometry" />
        </mxCell>
        <mxCell id="TvyI1OkQRVAZPM0vmnl8-10" value="mem" style="whiteSpace=wrap;html=1;aspect=fixed;" vertex="1" parent="1">
          <mxGeometry x="680" y="360" width="80" height="80" as="geometry" />
        </mxCell>
        <mxCell id="kykVUpYEriu8e2mIOXpI-18" style="edgeStyle=orthogonalEdgeStyle;rounded=0;orthogonalLoop=1;jettySize=auto;html=1;exitX=0.5;exitY=1;exitDx=0;exitDy=0;" edge="1" parent="1">
          <mxGeometry relative="1" as="geometry">
            <mxPoint x="960" y="600" as="targetPoint" />
            <mxPoint x="600" y="475" as="sourcePoint" />
            <Array as="points">
              <mxPoint x="600" y="500" />
              <mxPoint x="960" y="500" />
              <mxPoint x="960" y="600" />
            </Array>
          </mxGeometry>
        </mxCell>
        <mxCell id="TvyI1OkQRVAZPM0vmnl8-18" value="&amp;gt; 4" style="rounded=0;whiteSpace=wrap;html=1;" vertex="1" parent="1">
          <mxGeometry x="560" y="485" width="80" height="40" as="geometry" />
        </mxCell>
        <mxCell id="TvyI1OkQRVAZPM0vmnl8-118" style="edgeStyle=orthogonalEdgeStyle;rounded=0;orthogonalLoop=1;jettySize=auto;html=1;exitX=0.5;exitY=0;exitDx=0;exitDy=0;entryX=0;entryY=0.5;entryDx=0;entryDy=0;" edge="1" parent="1" target="TvyI1OkQRVAZPM0vmnl8-7">
          <mxGeometry relative="1" as="geometry">
            <mxPoint x="380" y="220" as="sourcePoint" />
            <Array as="points">
              <mxPoint x="380" y="200" />
            </Array>
          </mxGeometry>
        </mxCell>
        <mxCell id="TvyI1OkQRVAZPM0vmnl8-30" style="edgeStyle=orthogonalEdgeStyle;rounded=0;orthogonalLoop=1;jettySize=auto;html=1;entryX=0;entryY=0.5;entryDx=0;entryDy=0;" edge="1" parent="1" target="TvyI1OkQRVAZPM0vmnl8-27">
          <mxGeometry relative="1" as="geometry">
            <mxPoint x="296" y="380" as="sourcePoint" />
          </mxGeometry>
        </mxCell>
        <mxCell id="kykVUpYEriu8e2mIOXpI-4" style="edgeStyle=orthogonalEdgeStyle;rounded=0;orthogonalLoop=1;jettySize=auto;html=1;exitX=0.5;exitY=0;exitDx=0;exitDy=0;entryX=0.5;entryY=1;entryDx=0;entryDy=0;" edge="1" parent="1" source="TvyI1OkQRVAZPM0vmnl8-27" target="kykVUpYEriu8e2mIOXpI-2">
          <mxGeometry relative="1" as="geometry">
            <mxPoint x="379.78260869565224" y="260" as="targetPoint" />
          </mxGeometry>
        </mxCell>
        <mxCell id="TvyI1OkQRVAZPM0vmnl8-27" value="mux" style="shape=trapezoid;perimeter=trapezoidPerimeter;whiteSpace=wrap;html=1;fixedSize=1;" vertex="1" parent="1">
          <mxGeometry x="320" y="360" width="120" height="40" as="geometry" />
        </mxCell>
        <mxCell id="TvyI1OkQRVAZPM0vmnl8-34" style="edgeStyle=orthogonalEdgeStyle;rounded=0;orthogonalLoop=1;jettySize=auto;html=1;exitX=0.5;exitY=0;exitDx=0;exitDy=0;" edge="1" parent="1" source="kykVUpYEriu8e2mIOXpI-70">
          <mxGeometry relative="1" as="geometry">
            <mxPoint x="990" y="600" as="targetPoint" />
            <Array as="points">
              <mxPoint x="100" y="70" />
              <mxPoint x="990" y="70" />
            </Array>
            <mxPoint x="380" y="120" as="sourcePoint" />
          </mxGeometry>
        </mxCell>
        <mxCell id="TvyI1OkQRVAZPM0vmnl8-137" style="edgeStyle=orthogonalEdgeStyle;rounded=0;orthogonalLoop=1;jettySize=auto;html=1;exitX=0;exitY=0.25;exitDx=0;exitDy=0;entryX=0;entryY=0.25;entryDx=0;entryDy=0;" edge="1" parent="1" target="TvyI1OkQRVAZPM0vmnl8-38">
          <mxGeometry relative="1" as="geometry">
            <mxPoint x="28" y="-28" as="sourcePoint" />
          </mxGeometry>
        </mxCell>
        <mxCell id="TvyI1OkQRVAZPM0vmnl8-138" style="edgeStyle=orthogonalEdgeStyle;rounded=0;orthogonalLoop=1;jettySize=auto;html=1;exitX=0;exitY=0.5;exitDx=0;exitDy=0;entryX=0;entryY=0.5;entryDx=0;entryDy=0;" edge="1" parent="1" target="TvyI1OkQRVAZPM0vmnl8-38">
          <mxGeometry relative="1" as="geometry">
            <mxPoint x="28" y="-8" as="sourcePoint" />
          </mxGeometry>
        </mxCell>
        <mxCell id="TvyI1OkQRVAZPM0vmnl8-139" style="edgeStyle=orthogonalEdgeStyle;rounded=0;orthogonalLoop=1;jettySize=auto;html=1;exitX=0;exitY=0.75;exitDx=0;exitDy=0;entryX=0;entryY=0.75;entryDx=0;entryDy=0;" edge="1" parent="1" target="TvyI1OkQRVAZPM0vmnl8-38">
          <mxGeometry relative="1" as="geometry">
            <mxPoint x="28" y="12" as="sourcePoint" />
          </mxGeometry>
        </mxCell>
        <mxCell id="TvyI1OkQRVAZPM0vmnl8-38" value="ASD" style="whiteSpace=wrap;html=1;aspect=fixed;" vertex="1" parent="1">
          <mxGeometry x="48" y="-48" width="80" height="80" as="geometry" />
        </mxCell>
        <mxCell id="TvyI1OkQRVAZPM0vmnl8-51" style="edgeStyle=orthogonalEdgeStyle;rounded=0;orthogonalLoop=1;jettySize=auto;html=1;exitX=0;exitY=0.5;exitDx=0;exitDy=0;" edge="1" parent="1" target="TvyI1OkQRVAZPM0vmnl8-53">
          <mxGeometry relative="1" as="geometry">
            <mxPoint x="280" y="840" as="targetPoint" />
            <mxPoint x="320" y="840" as="sourcePoint" />
          </mxGeometry>
        </mxCell>
        <mxCell id="TvyI1OkQRVAZPM0vmnl8-50" style="edgeStyle=orthogonalEdgeStyle;rounded=0;orthogonalLoop=1;jettySize=auto;html=1;exitX=0;exitY=0.5;exitDx=0;exitDy=0;" edge="1" parent="1" source="TvyI1OkQRVAZPM0vmnl8-41">
          <mxGeometry relative="1" as="geometry">
            <mxPoint x="560" y="1090" as="targetPoint" />
            <Array as="points">
              <mxPoint x="360" y="920" />
              <mxPoint x="460" y="920" />
              <mxPoint x="460" y="1090" />
            </Array>
          </mxGeometry>
        </mxCell>
        <mxCell id="kykVUpYEriu8e2mIOXpI-75" style="edgeStyle=orthogonalEdgeStyle;rounded=0;orthogonalLoop=1;jettySize=auto;html=1;exitX=0;exitY=0.5;exitDx=0;exitDy=0;entryX=0.5;entryY=1;entryDx=0;entryDy=0;" edge="1" parent="1" source="TvyI1OkQRVAZPM0vmnl8-41" target="kykVUpYEriu8e2mIOXpI-73">
          <mxGeometry relative="1" as="geometry" />
        </mxCell>
        <mxCell id="kykVUpYEriu8e2mIOXpI-79" style="edgeStyle=orthogonalEdgeStyle;rounded=0;orthogonalLoop=1;jettySize=auto;html=1;exitX=0;exitY=0.5;exitDx=0;exitDy=0;entryX=0.5;entryY=1;entryDx=0;entryDy=0;" edge="1" parent="1" source="TvyI1OkQRVAZPM0vmnl8-41" target="kykVUpYEriu8e2mIOXpI-76">
          <mxGeometry relative="1" as="geometry">
            <Array as="points">
              <mxPoint x="360" y="920" />
              <mxPoint x="60" y="920" />
            </Array>
          </mxGeometry>
        </mxCell>
        <mxCell id="TvyI1OkQRVAZPM0vmnl8-41" value="counter" style="rounded=0;whiteSpace=wrap;html=1;direction=south;" vertex="1" parent="1">
          <mxGeometry x="330" y="960" width="60" height="120" as="geometry" />
        </mxCell>
        <mxCell id="TvyI1OkQRVAZPM0vmnl8-46" style="edgeStyle=orthogonalEdgeStyle;rounded=0;orthogonalLoop=1;jettySize=auto;html=1;exitX=0.5;exitY=1;exitDx=0;exitDy=0;" edge="1" parent="1" source="TvyI1OkQRVAZPM0vmnl8-43" target="TvyI1OkQRVAZPM0vmnl8-44">
          <mxGeometry relative="1" as="geometry" />
        </mxCell>
        <mxCell id="kykVUpYEriu8e2mIOXpI-77" style="edgeStyle=orthogonalEdgeStyle;rounded=0;orthogonalLoop=1;jettySize=auto;html=1;exitX=0.5;exitY=0;exitDx=0;exitDy=0;entryX=0.5;entryY=0;entryDx=0;entryDy=0;" edge="1" parent="1" target="TvyI1OkQRVAZPM0vmnl8-43">
          <mxGeometry relative="1" as="geometry">
            <mxPoint x="559.7037037037037" y="700" as="sourcePoint" />
          </mxGeometry>
        </mxCell>
        <mxCell id="TvyI1OkQRVAZPM0vmnl8-43" value="carry" style="rounded=0;whiteSpace=wrap;html=1;" vertex="1" parent="1">
          <mxGeometry x="520" y="740" width="80" height="20" as="geometry" />
        </mxCell>
        <mxCell id="TvyI1OkQRVAZPM0vmnl8-85" style="edgeStyle=orthogonalEdgeStyle;rounded=0;orthogonalLoop=1;jettySize=auto;html=1;exitX=1;exitY=0.5;exitDx=0;exitDy=0;" edge="1" parent="1" source="TvyI1OkQRVAZPM0vmnl8-44">
          <mxGeometry relative="1" as="geometry">
            <mxPoint x="720" y="840" as="targetPoint" />
          </mxGeometry>
        </mxCell>
        <mxCell id="TvyI1OkQRVAZPM0vmnl8-44" value="+" style="rounded=0;whiteSpace=wrap;html=1;" vertex="1" parent="1">
          <mxGeometry x="540" y="820" width="40" height="40" as="geometry" />
        </mxCell>
        <mxCell id="TvyI1OkQRVAZPM0vmnl8-54" style="edgeStyle=orthogonalEdgeStyle;rounded=0;orthogonalLoop=1;jettySize=auto;html=1;exitX=0;exitY=0.5;exitDx=0;exitDy=0;" edge="1" parent="1" source="TvyI1OkQRVAZPM0vmnl8-53">
          <mxGeometry relative="1" as="geometry">
            <mxPoint x="560" y="1110" as="targetPoint" />
            <mxPoint x="160" y="830" as="sourcePoint" />
            <Array as="points">
              <mxPoint x="140" y="840" />
              <mxPoint x="140" y="1110" />
            </Array>
          </mxGeometry>
        </mxCell>
        <mxCell id="TvyI1OkQRVAZPM0vmnl8-53" value="FX{i-1} = 1" style="rounded=0;whiteSpace=wrap;html=1;" vertex="1" parent="1">
          <mxGeometry x="160" y="820" width="80" height="40" as="geometry" />
        </mxCell>
        <mxCell id="TvyI1OkQRVAZPM0vmnl8-90" style="edgeStyle=orthogonalEdgeStyle;rounded=0;orthogonalLoop=1;jettySize=auto;html=1;exitX=1;exitY=0.5;exitDx=0;exitDy=0;exitPerimeter=0;" edge="1" parent="1" source="TvyI1OkQRVAZPM0vmnl8-55">
          <mxGeometry relative="1" as="geometry">
            <mxPoint x="720" y="1100.181818181818" as="targetPoint" />
          </mxGeometry>
        </mxCell>
        <mxCell id="TvyI1OkQRVAZPM0vmnl8-55" value="" style="shape=or;whiteSpace=wrap;html=1;" vertex="1" parent="1">
          <mxGeometry x="560" y="1080" width="40" height="40" as="geometry" />
        </mxCell>
        <mxCell id="5OUNu-mXDKXS3Fbgeo7Q-112" style="edgeStyle=orthogonalEdgeStyle;rounded=0;orthogonalLoop=1;jettySize=auto;html=1;exitX=0;exitY=0.25;exitDx=0;exitDy=0;entryX=0;entryY=0.25;entryDx=0;entryDy=0;" edge="1" parent="1" target="TvyI1OkQRVAZPM0vmnl8-93">
          <mxGeometry relative="1" as="geometry">
            <mxPoint x="-683" y="1300.1999999999998" as="sourcePoint" />
          </mxGeometry>
        </mxCell>
        <mxCell id="5OUNu-mXDKXS3Fbgeo7Q-131" style="edgeStyle=orthogonalEdgeStyle;rounded=0;orthogonalLoop=1;jettySize=auto;html=1;exitX=0.5;exitY=1;exitDx=0;exitDy=0;" edge="1" parent="1" source="TvyI1OkQRVAZPM0vmnl8-93">
          <mxGeometry relative="1" as="geometry">
            <mxPoint x="-613.421052631579" y="1430" as="targetPoint" />
          </mxGeometry>
        </mxCell>
        <mxCell id="5OUNu-mXDKXS3Fbgeo7Q-148" style="edgeStyle=orthogonalEdgeStyle;rounded=0;orthogonalLoop=1;jettySize=auto;html=1;exitX=0.5;exitY=0;exitDx=0;exitDy=0;entryX=0.5;entryY=0;entryDx=0;entryDy=0;" edge="1" parent="1" target="TvyI1OkQRVAZPM0vmnl8-93">
          <mxGeometry relative="1" as="geometry">
            <mxPoint x="-613.6666666666665" y="1170" as="sourcePoint" />
          </mxGeometry>
        </mxCell>
        <mxCell id="TvyI1OkQRVAZPM0vmnl8-93" value="feature map" style="whiteSpace=wrap;html=1;aspect=fixed;" vertex="1" parent="1">
          <mxGeometry x="-653" y="1280" width="80" height="80" as="geometry" />
        </mxCell>
        <mxCell id="5OUNu-mXDKXS3Fbgeo7Q-144" style="edgeStyle=orthogonalEdgeStyle;rounded=0;orthogonalLoop=1;jettySize=auto;html=1;exitX=0.5;exitY=1;exitDx=0;exitDy=0;" edge="1" parent="1" source="TvyI1OkQRVAZPM0vmnl8-94">
          <mxGeometry relative="1" as="geometry">
            <mxPoint x="-452.85714285714266" y="1430" as="targetPoint" />
          </mxGeometry>
        </mxCell>
        <mxCell id="5OUNu-mXDKXS3Fbgeo7Q-149" style="edgeStyle=orthogonalEdgeStyle;rounded=0;orthogonalLoop=1;jettySize=auto;html=1;exitX=0.5;exitY=0;exitDx=0;exitDy=0;entryX=0.5;entryY=0;entryDx=0;entryDy=0;" edge="1" parent="1" target="TvyI1OkQRVAZPM0vmnl8-94">
          <mxGeometry relative="1" as="geometry">
            <mxPoint x="-453.6666666666665" y="1170" as="sourcePoint" />
          </mxGeometry>
        </mxCell>
        <mxCell id="5OUNu-mXDKXS3Fbgeo7Q-150" style="edgeStyle=orthogonalEdgeStyle;rounded=0;orthogonalLoop=1;jettySize=auto;html=1;entryX=1;entryY=0.5;entryDx=0;entryDy=0;exitX=0.5;exitY=1;exitDx=0;exitDy=0;" edge="1" parent="1" source="5OUNu-mXDKXS3Fbgeo7Q-151" target="TvyI1OkQRVAZPM0vmnl8-94">
          <mxGeometry relative="1" as="geometry">
            <mxPoint x="-340" y="1130" as="sourcePoint" />
            <Array as="points">
              <mxPoint x="-340" y="1120" />
              <mxPoint x="-340" y="1320" />
            </Array>
          </mxGeometry>
        </mxCell>
        <mxCell id="TvyI1OkQRVAZPM0vmnl8-94" value="kernel" style="whiteSpace=wrap;html=1;aspect=fixed;" vertex="1" parent="1">
          <mxGeometry x="-493" y="1280" width="80" height="80" as="geometry" />
        </mxCell>
        <mxCell id="TvyI1OkQRVAZPM0vmnl8-100" style="edgeStyle=orthogonalEdgeStyle;rounded=0;orthogonalLoop=1;jettySize=auto;html=1;exitX=1;exitY=0.5;exitDx=0;exitDy=0;" edge="1" parent="1" source="TvyI1OkQRVAZPM0vmnl8-95" target="TvyI1OkQRVAZPM0vmnl8-102">
          <mxGeometry relative="1" as="geometry">
            <mxPoint x="-220.05263157894706" y="1440" as="targetPoint" />
          </mxGeometry>
        </mxCell>
        <mxCell id="5OUNu-mXDKXS3Fbgeo7Q-145" style="edgeStyle=orthogonalEdgeStyle;rounded=0;orthogonalLoop=1;jettySize=auto;html=1;exitX=0;exitY=0.5;exitDx=0;exitDy=0;" edge="1" parent="1" source="TvyI1OkQRVAZPM0vmnl8-95">
          <mxGeometry relative="1" as="geometry">
            <mxPoint x="-220" y="1200" as="targetPoint" />
          </mxGeometry>
        </mxCell>
        <mxCell id="TvyI1OkQRVAZPM0vmnl8-95" value="counter_i" style="rounded=0;whiteSpace=wrap;html=1;direction=south;" vertex="1" parent="1">
          <mxGeometry x="-250" y="1320" width="60" height="80" as="geometry" />
        </mxCell>
        <mxCell id="TvyI1OkQRVAZPM0vmnl8-104" style="edgeStyle=orthogonalEdgeStyle;rounded=0;orthogonalLoop=1;jettySize=auto;html=1;exitX=1;exitY=0.5;exitDx=0;exitDy=0;entryX=0.5;entryY=0;entryDx=0;entryDy=0;" edge="1" parent="1" source="TvyI1OkQRVAZPM0vmnl8-96" target="TvyI1OkQRVAZPM0vmnl8-103">
          <mxGeometry relative="1" as="geometry" />
        </mxCell>
        <mxCell id="5OUNu-mXDKXS3Fbgeo7Q-146" style="edgeStyle=orthogonalEdgeStyle;rounded=0;orthogonalLoop=1;jettySize=auto;html=1;exitX=0;exitY=0.5;exitDx=0;exitDy=0;" edge="1" parent="1" source="TvyI1OkQRVAZPM0vmnl8-96">
          <mxGeometry relative="1" as="geometry">
            <mxPoint x="-100.33333333333303" y="1200" as="targetPoint" />
          </mxGeometry>
        </mxCell>
        <mxCell id="TvyI1OkQRVAZPM0vmnl8-96" value="counter_j" style="rounded=0;whiteSpace=wrap;html=1;direction=south;" vertex="1" parent="1">
          <mxGeometry x="-130" y="1320" width="60" height="80" as="geometry" />
        </mxCell>
        <mxCell id="TvyI1OkQRVAZPM0vmnl8-102" value="comp" style="rounded=0;whiteSpace=wrap;html=1;" vertex="1" parent="1">
          <mxGeometry x="-250" y="1440" width="60" height="40" as="geometry" />
        </mxCell>
        <mxCell id="TvyI1OkQRVAZPM0vmnl8-103" value="comp" style="rounded=0;whiteSpace=wrap;html=1;" vertex="1" parent="1">
          <mxGeometry x="-130" y="1440" width="60" height="40" as="geometry" />
        </mxCell>
        <mxCell id="TvyI1OkQRVAZPM0vmnl8-113" value="CLK" style="text;html=1;align=center;verticalAlign=middle;resizable=0;points=[];autosize=1;strokeColor=none;fillColor=none;" vertex="1" parent="1">
          <mxGeometry x="265" y="608" width="50" height="30" as="geometry" />
        </mxCell>
        <mxCell id="TvyI1OkQRVAZPM0vmnl8-114" value="RST" style="text;html=1;align=center;verticalAlign=middle;resizable=0;points=[];autosize=1;strokeColor=none;fillColor=none;" vertex="1" parent="1">
          <mxGeometry x="265" y="638" width="50" height="30" as="geometry" />
        </mxCell>
        <mxCell id="TvyI1OkQRVAZPM0vmnl8-115" value="ENA" style="text;html=1;align=center;verticalAlign=middle;resizable=0;points=[];autosize=1;strokeColor=none;fillColor=none;" vertex="1" parent="1">
          <mxGeometry x="265" y="668" width="50" height="30" as="geometry" />
        </mxCell>
        <mxCell id="TvyI1OkQRVAZPM0vmnl8-140" value="CLK" style="text;html=1;align=center;verticalAlign=middle;resizable=0;points=[];autosize=1;strokeColor=none;fillColor=none;" vertex="1" parent="1">
          <mxGeometry y="-50" width="50" height="30" as="geometry" />
        </mxCell>
        <mxCell id="TvyI1OkQRVAZPM0vmnl8-143" value="RST" style="text;html=1;align=center;verticalAlign=middle;resizable=0;points=[];autosize=1;strokeColor=none;fillColor=none;" vertex="1" parent="1">
          <mxGeometry x="1" y="-30" width="50" height="30" as="geometry" />
        </mxCell>
        <mxCell id="TvyI1OkQRVAZPM0vmnl8-144" value="WE" style="text;html=1;align=center;verticalAlign=middle;resizable=0;points=[];autosize=1;strokeColor=none;fillColor=none;" vertex="1" parent="1">
          <mxGeometry x="5" y="-10" width="40" height="30" as="geometry" />
        </mxCell>
        <mxCell id="TvyI1OkQRVAZPM0vmnl8-145" value="Sel_i" style="text;html=1;align=center;verticalAlign=middle;resizable=0;points=[];autosize=1;strokeColor=none;fillColor=none;" vertex="1" parent="1">
          <mxGeometry x="275" y="358" width="50" height="30" as="geometry" />
        </mxCell>
        <mxCell id="TvyI1OkQRVAZPM0vmnl8-146" value="comp" style="rounded=0;whiteSpace=wrap;html=1;" vertex="1" parent="1">
          <mxGeometry x="210" y="625" width="40" height="40" as="geometry" />
        </mxCell>
        <mxCell id="TvyI1OkQRVAZPM0vmnl8-155" style="edgeStyle=orthogonalEdgeStyle;rounded=0;orthogonalLoop=1;jettySize=auto;html=1;exitX=0.504;exitY=0.076;exitDx=0;exitDy=0;entryX=0.75;entryY=1;entryDx=0;entryDy=0;exitPerimeter=0;" edge="1" parent="1" source="TvyI1OkQRVAZPM0vmnl8-158" target="TvyI1OkQRVAZPM0vmnl8-153">
          <mxGeometry relative="1" as="geometry">
            <mxPoint x="740" y="560" as="sourcePoint" />
          </mxGeometry>
        </mxCell>
        <mxCell id="TvyI1OkQRVAZPM0vmnl8-156" style="edgeStyle=orthogonalEdgeStyle;rounded=0;orthogonalLoop=1;jettySize=auto;html=1;exitX=0.836;exitY=0.071;exitDx=0;exitDy=0;entryX=0.5;entryY=1;entryDx=0;entryDy=0;exitPerimeter=0;" edge="1" parent="1" source="TvyI1OkQRVAZPM0vmnl8-157" target="TvyI1OkQRVAZPM0vmnl8-153">
          <mxGeometry relative="1" as="geometry">
            <mxPoint x="710" y="560" as="sourcePoint" />
            <Array as="points">
              <mxPoint x="720" y="560" />
            </Array>
          </mxGeometry>
        </mxCell>
        <mxCell id="TvyI1OkQRVAZPM0vmnl8-159" style="edgeStyle=orthogonalEdgeStyle;rounded=0;orthogonalLoop=1;jettySize=auto;html=1;exitX=0.5;exitY=0;exitDx=0;exitDy=0;entryX=0.5;entryY=1;entryDx=0;entryDy=0;" edge="1" parent="1" source="TvyI1OkQRVAZPM0vmnl8-153" target="TvyI1OkQRVAZPM0vmnl8-10">
          <mxGeometry relative="1" as="geometry">
            <Array as="points">
              <mxPoint x="720" y="490" />
            </Array>
          </mxGeometry>
        </mxCell>
        <mxCell id="TvyI1OkQRVAZPM0vmnl8-160" style="edgeStyle=orthogonalEdgeStyle;rounded=0;orthogonalLoop=1;jettySize=auto;html=1;entryX=1;entryY=0.5;entryDx=0;entryDy=0;" edge="1" parent="1" target="TvyI1OkQRVAZPM0vmnl8-153">
          <mxGeometry relative="1" as="geometry">
            <mxPoint x="800" y="505" as="sourcePoint" />
          </mxGeometry>
        </mxCell>
        <mxCell id="TvyI1OkQRVAZPM0vmnl8-153" value="mux" style="shape=trapezoid;perimeter=trapezoidPerimeter;whiteSpace=wrap;html=1;fixedSize=1;" vertex="1" parent="1">
          <mxGeometry x="660" y="490" width="120" height="30" as="geometry" />
        </mxCell>
        <mxCell id="TvyI1OkQRVAZPM0vmnl8-157" value="1" style="text;html=1;align=center;verticalAlign=middle;resizable=0;points=[];autosize=1;strokeColor=none;fillColor=none;" vertex="1" parent="1">
          <mxGeometry x="695" y="558" width="30" height="30" as="geometry" />
        </mxCell>
        <mxCell id="TvyI1OkQRVAZPM0vmnl8-158" value="2" style="text;html=1;align=center;verticalAlign=middle;resizable=0;points=[];autosize=1;strokeColor=none;fillColor=none;" vertex="1" parent="1">
          <mxGeometry x="735" y="558" width="30" height="30" as="geometry" />
        </mxCell>
        <mxCell id="TvyI1OkQRVAZPM0vmnl8-161" value="Sel_add" style="text;html=1;align=center;verticalAlign=middle;resizable=0;points=[];autosize=1;strokeColor=none;fillColor=none;" vertex="1" parent="1">
          <mxGeometry x="757" y="480" width="70" height="30" as="geometry" />
        </mxCell>
        <mxCell id="kykVUpYEriu8e2mIOXpI-1" value="ASD[i:i-2]" style="text;html=1;align=center;verticalAlign=middle;resizable=0;points=[];autosize=1;strokeColor=none;fillColor=none;fontStyle=1;fontSize=15;" vertex="1" parent="1">
          <mxGeometry x="335" y="220" width="90" height="30" as="geometry" />
        </mxCell>
        <mxCell id="kykVUpYEriu8e2mIOXpI-25" style="edgeStyle=orthogonalEdgeStyle;rounded=0;orthogonalLoop=1;jettySize=auto;html=1;exitX=1;exitY=0.5;exitDx=0;exitDy=0;entryX=0.5;entryY=0;entryDx=0;entryDy=0;" edge="1" parent="1" source="kykVUpYEriu8e2mIOXpI-6" target="kykVUpYEriu8e2mIOXpI-23">
          <mxGeometry relative="1" as="geometry" />
        </mxCell>
        <mxCell id="kykVUpYEriu8e2mIOXpI-6" value="k1" style="rounded=0;whiteSpace=wrap;html=1;" vertex="1" parent="1">
          <mxGeometry x="840" y="310" width="70" height="30" as="geometry" />
        </mxCell>
        <mxCell id="kykVUpYEriu8e2mIOXpI-24" style="edgeStyle=orthogonalEdgeStyle;rounded=0;orthogonalLoop=1;jettySize=auto;html=1;exitX=1;exitY=0.5;exitDx=0;exitDy=0;entryX=0;entryY=0.5;entryDx=0;entryDy=0;" edge="1" parent="1" source="kykVUpYEriu8e2mIOXpI-8" target="kykVUpYEriu8e2mIOXpI-23">
          <mxGeometry relative="1" as="geometry" />
        </mxCell>
        <mxCell id="kykVUpYEriu8e2mIOXpI-8" value="k2" style="rounded=0;whiteSpace=wrap;html=1;" vertex="1" parent="1">
          <mxGeometry x="840" y="360" width="70" height="30" as="geometry" />
        </mxCell>
        <mxCell id="kykVUpYEriu8e2mIOXpI-10" value="k3" style="rounded=0;whiteSpace=wrap;html=1;" vertex="1" parent="1">
          <mxGeometry x="840" y="410" width="70" height="30" as="geometry" />
        </mxCell>
        <mxCell id="kykVUpYEriu8e2mIOXpI-15" value="k0" style="rounded=0;whiteSpace=wrap;html=1;" vertex="1" parent="1">
          <mxGeometry x="840" y="265" width="70" height="30" as="geometry" />
        </mxCell>
        <mxCell id="kykVUpYEriu8e2mIOXpI-26" style="edgeStyle=orthogonalEdgeStyle;rounded=0;orthogonalLoop=1;jettySize=auto;html=1;exitX=0.5;exitY=1;exitDx=0;exitDy=0;" edge="1" parent="1">
          <mxGeometry relative="1" as="geometry">
            <mxPoint x="974.7495238095237" y="600" as="targetPoint" />
            <mxPoint x="974.94" y="381" as="sourcePoint" />
          </mxGeometry>
        </mxCell>
        <mxCell id="kykVUpYEriu8e2mIOXpI-23" value="k1 = k2 + 2" style="rounded=0;whiteSpace=wrap;html=1;" vertex="1" parent="1">
          <mxGeometry x="940" y="359" width="70" height="32" as="geometry" />
        </mxCell>
        <mxCell id="kykVUpYEriu8e2mIOXpI-29" style="edgeStyle=orthogonalEdgeStyle;rounded=0;orthogonalLoop=1;jettySize=auto;html=1;exitX=1;exitY=0.5;exitDx=0;exitDy=0;exitPerimeter=0;" edge="1" parent="1" source="kykVUpYEriu8e2mIOXpI-28">
          <mxGeometry relative="1" as="geometry">
            <mxPoint x="975.1034482758621" y="680" as="targetPoint" />
          </mxGeometry>
        </mxCell>
        <mxCell id="kykVUpYEriu8e2mIOXpI-28" value="" style="shape=or;whiteSpace=wrap;html=1;direction=south;" vertex="1" parent="1">
          <mxGeometry x="945" y="600" width="60" height="40" as="geometry" />
        </mxCell>
        <mxCell id="kykVUpYEriu8e2mIOXpI-43" value="Encode CSD" style="shape=table;startSize=30;container=1;collapsible=0;childLayout=tableLayout;fixedRows=1;rowLines=0;fontStyle=0;strokeColor=default;fontSize=16;" vertex="1" parent="1">
          <mxGeometry x="1120" y="-80" width="180" height="120" as="geometry" />
        </mxCell>
        <mxCell id="kykVUpYEriu8e2mIOXpI-44" value="" style="shape=tableRow;horizontal=0;startSize=0;swimlaneHead=0;swimlaneBody=0;top=0;left=0;bottom=0;right=0;collapsible=0;dropTarget=0;fillColor=none;points=[[0,0.5],[1,0.5]];portConstraint=eastwest;strokeColor=inherit;fontSize=16;" vertex="1" parent="kykVUpYEriu8e2mIOXpI-43">
          <mxGeometry y="30" width="180" height="30" as="geometry" />
        </mxCell>
        <mxCell id="kykVUpYEriu8e2mIOXpI-45" value="00" style="shape=partialRectangle;html=1;whiteSpace=wrap;connectable=0;fillColor=none;top=0;left=0;bottom=0;right=0;overflow=hidden;pointerEvents=1;strokeColor=inherit;fontSize=16;" vertex="1" parent="kykVUpYEriu8e2mIOXpI-44">
          <mxGeometry width="80" height="30" as="geometry">
            <mxRectangle width="80" height="30" as="alternateBounds" />
          </mxGeometry>
        </mxCell>
        <mxCell id="kykVUpYEriu8e2mIOXpI-46" value="0" style="shape=partialRectangle;html=1;whiteSpace=wrap;connectable=0;fillColor=none;top=0;left=0;bottom=0;right=0;align=left;spacingLeft=6;overflow=hidden;strokeColor=inherit;fontSize=16;" vertex="1" parent="kykVUpYEriu8e2mIOXpI-44">
          <mxGeometry x="80" width="100" height="30" as="geometry">
            <mxRectangle width="100" height="30" as="alternateBounds" />
          </mxGeometry>
        </mxCell>
        <mxCell id="kykVUpYEriu8e2mIOXpI-47" value="" style="shape=tableRow;horizontal=0;startSize=0;swimlaneHead=0;swimlaneBody=0;top=0;left=0;bottom=0;right=0;collapsible=0;dropTarget=0;fillColor=none;points=[[0,0.5],[1,0.5]];portConstraint=eastwest;strokeColor=inherit;fontSize=16;" vertex="1" parent="kykVUpYEriu8e2mIOXpI-43">
          <mxGeometry y="60" width="180" height="30" as="geometry" />
        </mxCell>
        <mxCell id="kykVUpYEriu8e2mIOXpI-48" value="01" style="shape=partialRectangle;html=1;whiteSpace=wrap;connectable=0;fillColor=none;top=0;left=0;bottom=0;right=0;overflow=hidden;strokeColor=inherit;fontSize=16;" vertex="1" parent="kykVUpYEriu8e2mIOXpI-47">
          <mxGeometry width="80" height="30" as="geometry">
            <mxRectangle width="80" height="30" as="alternateBounds" />
          </mxGeometry>
        </mxCell>
        <mxCell id="kykVUpYEriu8e2mIOXpI-49" value="1" style="shape=partialRectangle;html=1;whiteSpace=wrap;connectable=0;fillColor=none;top=0;left=0;bottom=0;right=0;align=left;spacingLeft=6;overflow=hidden;strokeColor=inherit;fontSize=16;" vertex="1" parent="kykVUpYEriu8e2mIOXpI-47">
          <mxGeometry x="80" width="100" height="30" as="geometry">
            <mxRectangle width="100" height="30" as="alternateBounds" />
          </mxGeometry>
        </mxCell>
        <mxCell id="kykVUpYEriu8e2mIOXpI-50" value="" style="shape=tableRow;horizontal=0;startSize=0;swimlaneHead=0;swimlaneBody=0;top=0;left=0;bottom=0;right=0;collapsible=0;dropTarget=0;fillColor=none;points=[[0,0.5],[1,0.5]];portConstraint=eastwest;strokeColor=inherit;fontSize=16;" vertex="1" parent="kykVUpYEriu8e2mIOXpI-43">
          <mxGeometry y="90" width="180" height="30" as="geometry" />
        </mxCell>
        <mxCell id="kykVUpYEriu8e2mIOXpI-51" value="10" style="shape=partialRectangle;html=1;whiteSpace=wrap;connectable=0;fillColor=none;top=0;left=0;bottom=0;right=0;overflow=hidden;strokeColor=inherit;fontSize=16;" vertex="1" parent="kykVUpYEriu8e2mIOXpI-50">
          <mxGeometry width="80" height="30" as="geometry">
            <mxRectangle width="80" height="30" as="alternateBounds" />
          </mxGeometry>
        </mxCell>
        <mxCell id="kykVUpYEriu8e2mIOXpI-52" value="-1" style="shape=partialRectangle;html=1;whiteSpace=wrap;connectable=0;fillColor=none;top=0;left=0;bottom=0;right=0;align=left;spacingLeft=6;overflow=hidden;strokeColor=inherit;fontSize=16;" vertex="1" parent="kykVUpYEriu8e2mIOXpI-50">
          <mxGeometry x="80" width="100" height="30" as="geometry">
            <mxRectangle width="100" height="30" as="alternateBounds" />
          </mxGeometry>
        </mxCell>
        <mxCell id="kykVUpYEriu8e2mIOXpI-67" style="edgeStyle=orthogonalEdgeStyle;rounded=0;orthogonalLoop=1;jettySize=auto;html=1;exitX=0;exitY=0.5;exitDx=0;exitDy=0;" edge="1" parent="1" source="kykVUpYEriu8e2mIOXpI-57">
          <mxGeometry relative="1" as="geometry">
            <mxPoint x="120" y="140" as="targetPoint" />
          </mxGeometry>
        </mxCell>
        <mxCell id="kykVUpYEriu8e2mIOXpI-57" value="ck1" style="rounded=0;whiteSpace=wrap;html=1;" vertex="1" parent="1">
          <mxGeometry x="170" y="192.5" width="70" height="30" as="geometry" />
        </mxCell>
        <mxCell id="kykVUpYEriu8e2mIOXpI-68" style="edgeStyle=orthogonalEdgeStyle;rounded=0;orthogonalLoop=1;jettySize=auto;html=1;exitX=0;exitY=0.5;exitDx=0;exitDy=0;" edge="1" parent="1" source="kykVUpYEriu8e2mIOXpI-59">
          <mxGeometry relative="1" as="geometry">
            <mxPoint x="100" y="140" as="targetPoint" />
          </mxGeometry>
        </mxCell>
        <mxCell id="kykVUpYEriu8e2mIOXpI-59" value="ck2" style="rounded=0;whiteSpace=wrap;html=1;" vertex="1" parent="1">
          <mxGeometry x="170" y="242.5" width="70" height="30" as="geometry" />
        </mxCell>
        <mxCell id="kykVUpYEriu8e2mIOXpI-69" style="edgeStyle=orthogonalEdgeStyle;rounded=0;orthogonalLoop=1;jettySize=auto;html=1;exitX=0;exitY=0.5;exitDx=0;exitDy=0;" edge="1" parent="1" source="kykVUpYEriu8e2mIOXpI-60">
          <mxGeometry relative="1" as="geometry">
            <mxPoint x="80" y="140" as="targetPoint" />
          </mxGeometry>
        </mxCell>
        <mxCell id="kykVUpYEriu8e2mIOXpI-60" value="ck3" style="rounded=0;whiteSpace=wrap;html=1;" vertex="1" parent="1">
          <mxGeometry x="170" y="292.5" width="70" height="30" as="geometry" />
        </mxCell>
        <mxCell id="kykVUpYEriu8e2mIOXpI-61" value="ck0" style="rounded=0;whiteSpace=wrap;html=1;" vertex="1" parent="1">
          <mxGeometry x="170" y="147.5" width="70" height="30" as="geometry" />
        </mxCell>
        <mxCell id="kykVUpYEriu8e2mIOXpI-70" value="ck1 = -ck2 = -ck3" style="rounded=0;whiteSpace=wrap;html=1;" vertex="1" parent="1">
          <mxGeometry x="50" y="110" width="100" height="30" as="geometry" />
        </mxCell>
        <mxCell id="kykVUpYEriu8e2mIOXpI-72" value="En_reg_k" style="shape=trapezoid;perimeter=trapezoidPerimeter;whiteSpace=wrap;html=1;fixedSize=1;direction=west;" vertex="1" parent="1">
          <mxGeometry x="800" y="160" width="120" height="40" as="geometry" />
        </mxCell>
        <mxCell id="kykVUpYEriu8e2mIOXpI-74" style="edgeStyle=orthogonalEdgeStyle;rounded=0;orthogonalLoop=1;jettySize=auto;html=1;exitX=1;exitY=0.5;exitDx=0;exitDy=0;entryX=0;entryY=0.5;entryDx=0;entryDy=0;" edge="1" parent="1" source="kykVUpYEriu8e2mIOXpI-73" target="TvyI1OkQRVAZPM0vmnl8-44">
          <mxGeometry relative="1" as="geometry" />
        </mxCell>
        <mxCell id="kykVUpYEriu8e2mIOXpI-73" value="FX[15:0]" style="rounded=0;whiteSpace=wrap;html=1;fontStyle=1" vertex="1" parent="1">
          <mxGeometry x="320" y="830" width="80" height="20" as="geometry" />
        </mxCell>
        <mxCell id="kykVUpYEriu8e2mIOXpI-76" value="CSD[31:0]" style="rounded=0;whiteSpace=wrap;html=1;fontStyle=1" vertex="1" parent="1">
          <mxGeometry x="20" y="830" width="80" height="20" as="geometry" />
        </mxCell>
        <mxCell id="ax5gozk2TbE6IYt9XCmW-4" style="edgeStyle=orthogonalEdgeStyle;rounded=0;orthogonalLoop=1;jettySize=auto;html=1;exitX=0.5;exitY=1;exitDx=0;exitDy=0;" edge="1" parent="1" source="ax5gozk2TbE6IYt9XCmW-1" target="ax5gozk2TbE6IYt9XCmW-3">
          <mxGeometry relative="1" as="geometry" />
        </mxCell>
        <mxCell id="ax5gozk2TbE6IYt9XCmW-1" value="Clear all&lt;div&gt;Done = 0&lt;/div&gt;" style="rounded=0;whiteSpace=wrap;html=1;" vertex="1" parent="1">
          <mxGeometry x="1240" y="80" width="80" height="40" as="geometry" />
        </mxCell>
        <mxCell id="ax5gozk2TbE6IYt9XCmW-6" style="edgeStyle=orthogonalEdgeStyle;rounded=0;orthogonalLoop=1;jettySize=auto;html=1;exitX=0.5;exitY=1;exitDx=0;exitDy=0;" edge="1" parent="1" source="ax5gozk2TbE6IYt9XCmW-3" target="ax5gozk2TbE6IYt9XCmW-5">
          <mxGeometry relative="1" as="geometry" />
        </mxCell>
        <mxCell id="ax5gozk2TbE6IYt9XCmW-3" value="start&amp;nbsp;" style="rhombus;whiteSpace=wrap;html=1;" vertex="1" parent="1">
          <mxGeometry x="1240" y="160" width="80" height="40" as="geometry" />
        </mxCell>
        <mxCell id="ax5gozk2TbE6IYt9XCmW-10" style="edgeStyle=orthogonalEdgeStyle;rounded=0;orthogonalLoop=1;jettySize=auto;html=1;exitX=0.5;exitY=1;exitDx=0;exitDy=0;entryX=0.5;entryY=0;entryDx=0;entryDy=0;" edge="1" parent="1" source="ax5gozk2TbE6IYt9XCmW-5" target="ax5gozk2TbE6IYt9XCmW-8">
          <mxGeometry relative="1" as="geometry" />
        </mxCell>
        <mxCell id="ax5gozk2TbE6IYt9XCmW-5" value="Load" style="rounded=0;whiteSpace=wrap;html=1;" vertex="1" parent="1">
          <mxGeometry x="1241" y="240" width="79" height="40" as="geometry" />
        </mxCell>
        <mxCell id="ax5gozk2TbE6IYt9XCmW-11" style="edgeStyle=orthogonalEdgeStyle;rounded=0;orthogonalLoop=1;jettySize=auto;html=1;exitX=0.5;exitY=1;exitDx=0;exitDy=0;" edge="1" parent="1" source="ax5gozk2TbE6IYt9XCmW-8" target="ax5gozk2TbE6IYt9XCmW-12">
          <mxGeometry relative="1" as="geometry">
            <mxPoint x="1280.04347826087" y="400" as="targetPoint" />
          </mxGeometry>
        </mxCell>
        <mxCell id="ax5gozk2TbE6IYt9XCmW-13" style="edgeStyle=orthogonalEdgeStyle;rounded=0;orthogonalLoop=1;jettySize=auto;html=1;exitX=1;exitY=0.5;exitDx=0;exitDy=0;" edge="1" parent="1" source="ax5gozk2TbE6IYt9XCmW-8" target="ax5gozk2TbE6IYt9XCmW-16">
          <mxGeometry relative="1" as="geometry">
            <mxPoint x="1340" y="510" as="targetPoint" />
            <Array as="points">
              <mxPoint x="1340" y="340" />
              <mxPoint x="1340" y="560" />
              <mxPoint x="1281" y="560" />
            </Array>
          </mxGeometry>
        </mxCell>
        <mxCell id="ax5gozk2TbE6IYt9XCmW-8" value="Z_i" style="rhombus;whiteSpace=wrap;html=1;" vertex="1" parent="1">
          <mxGeometry x="1240" y="320" width="80" height="40" as="geometry" />
        </mxCell>
        <mxCell id="ax5gozk2TbE6IYt9XCmW-14" style="edgeStyle=orthogonalEdgeStyle;rounded=0;orthogonalLoop=1;jettySize=auto;html=1;exitX=0.5;exitY=1;exitDx=0;exitDy=0;" edge="1" parent="1" source="ax5gozk2TbE6IYt9XCmW-12" target="ax5gozk2TbE6IYt9XCmW-15">
          <mxGeometry relative="1" as="geometry">
            <mxPoint x="1280" y="480" as="targetPoint" />
          </mxGeometry>
        </mxCell>
        <mxCell id="ax5gozk2TbE6IYt9XCmW-12" value="Z_comp" style="rhombus;whiteSpace=wrap;html=1;" vertex="1" parent="1">
          <mxGeometry x="1240.04" y="400" width="80" height="40" as="geometry" />
        </mxCell>
        <mxCell id="ax5gozk2TbE6IYt9XCmW-15" value="enable counter k" style="rounded=0;whiteSpace=wrap;html=1;" vertex="1" parent="1">
          <mxGeometry x="1240" y="480" width="80" height="40" as="geometry" />
        </mxCell>
        <mxCell id="ax5gozk2TbE6IYt9XCmW-17" style="edgeStyle=orthogonalEdgeStyle;rounded=0;orthogonalLoop=1;jettySize=auto;html=1;exitX=0.5;exitY=1;exitDx=0;exitDy=0;" edge="1" parent="1" source="ax5gozk2TbE6IYt9XCmW-16" target="ax5gozk2TbE6IYt9XCmW-18">
          <mxGeometry relative="1" as="geometry">
            <mxPoint x="1281" y="680" as="targetPoint" />
          </mxGeometry>
        </mxCell>
        <mxCell id="ax5gozk2TbE6IYt9XCmW-32" style="edgeStyle=orthogonalEdgeStyle;rounded=0;orthogonalLoop=1;jettySize=auto;html=1;exitX=1;exitY=0.5;exitDx=0;exitDy=0;entryX=1;entryY=0.5;entryDx=0;entryDy=0;" edge="1" parent="1" source="ax5gozk2TbE6IYt9XCmW-16" target="ax5gozk2TbE6IYt9XCmW-22">
          <mxGeometry relative="1" as="geometry" />
        </mxCell>
        <mxCell id="ax5gozk2TbE6IYt9XCmW-16" value="Z_last" style="rhombus;whiteSpace=wrap;html=1;" vertex="1" parent="1">
          <mxGeometry x="1241" y="596" width="80" height="42" as="geometry" />
        </mxCell>
        <mxCell id="ax5gozk2TbE6IYt9XCmW-21" style="edgeStyle=orthogonalEdgeStyle;rounded=0;orthogonalLoop=1;jettySize=auto;html=1;exitX=0.5;exitY=1;exitDx=0;exitDy=0;" edge="1" parent="1" source="ax5gozk2TbE6IYt9XCmW-18" target="ax5gozk2TbE6IYt9XCmW-22">
          <mxGeometry relative="1" as="geometry">
            <mxPoint x="1281" y="760" as="targetPoint" />
          </mxGeometry>
        </mxCell>
        <mxCell id="ax5gozk2TbE6IYt9XCmW-18" value="enable reg k1&lt;div&gt;&lt;span style=&quot;background-color: transparent; color: light-dark(rgb(0, 0, 0), rgb(255, 255, 255));&quot;&gt;&amp;nbsp;reg ck1&lt;/span&gt;&lt;/div&gt;" style="rounded=0;whiteSpace=wrap;html=1;" vertex="1" parent="1">
          <mxGeometry x="1241" y="680" width="80" height="40" as="geometry" />
        </mxCell>
        <mxCell id="ax5gozk2TbE6IYt9XCmW-22" value="ASD" style="rounded=0;whiteSpace=wrap;html=1;" vertex="1" parent="1">
          <mxGeometry x="1241" y="760" width="80" height="40" as="geometry" />
        </mxCell>
        <mxCell id="ax5gozk2TbE6IYt9XCmW-24" value="1" style="text;html=1;align=center;verticalAlign=middle;resizable=0;points=[];autosize=1;strokeColor=none;fillColor=none;" vertex="1" parent="1">
          <mxGeometry x="1390" y="160" width="30" height="30" as="geometry" />
        </mxCell>
        <mxCell id="ax5gozk2TbE6IYt9XCmW-25" value="2" style="text;html=1;align=center;verticalAlign=middle;resizable=0;points=[];autosize=1;strokeColor=none;fillColor=none;" vertex="1" parent="1">
          <mxGeometry x="1380" y="240" width="30" height="30" as="geometry" />
        </mxCell>
        <mxCell id="ax5gozk2TbE6IYt9XCmW-26" value="3" style="text;html=1;align=center;verticalAlign=middle;resizable=0;points=[];autosize=1;strokeColor=none;fillColor=none;" vertex="1" parent="1">
          <mxGeometry x="1380" y="320" width="30" height="30" as="geometry" />
        </mxCell>
        <mxCell id="ax5gozk2TbE6IYt9XCmW-27" value="4" style="text;html=1;align=center;verticalAlign=middle;resizable=0;points=[];autosize=1;strokeColor=none;fillColor=none;" vertex="1" parent="1">
          <mxGeometry x="1380" y="400" width="30" height="30" as="geometry" />
        </mxCell>
        <mxCell id="ax5gozk2TbE6IYt9XCmW-28" value="5" style="text;html=1;align=center;verticalAlign=middle;resizable=0;points=[];autosize=1;strokeColor=none;fillColor=none;" vertex="1" parent="1">
          <mxGeometry x="1380" y="480" width="30" height="30" as="geometry" />
        </mxCell>
        <mxCell id="ax5gozk2TbE6IYt9XCmW-29" value="6" style="text;html=1;align=center;verticalAlign=middle;resizable=0;points=[];autosize=1;strokeColor=none;fillColor=none;" vertex="1" parent="1">
          <mxGeometry x="1380" y="596" width="30" height="30" as="geometry" />
        </mxCell>
        <mxCell id="ax5gozk2TbE6IYt9XCmW-30" value="7" style="text;html=1;align=center;verticalAlign=middle;resizable=0;points=[];autosize=1;strokeColor=none;fillColor=none;" vertex="1" parent="1">
          <mxGeometry x="1380" y="670" width="30" height="30" as="geometry" />
        </mxCell>
        <mxCell id="ax5gozk2TbE6IYt9XCmW-31" value="8" style="text;html=1;align=center;verticalAlign=middle;resizable=0;points=[];autosize=1;strokeColor=none;fillColor=none;" vertex="1" parent="1">
          <mxGeometry x="1380" y="760" width="30" height="30" as="geometry" />
        </mxCell>
        <mxCell id="ax5gozk2TbE6IYt9XCmW-39" value="Encode ASD" style="shape=table;startSize=30;container=1;collapsible=0;childLayout=tableLayout;fixedRows=1;rowLines=0;fontStyle=0;strokeColor=default;fontSize=16;" vertex="1" parent="1">
          <mxGeometry x="1350" y="-80" width="180" height="110" as="geometry" />
        </mxCell>
        <mxCell id="ax5gozk2TbE6IYt9XCmW-40" value="" style="shape=tableRow;horizontal=0;startSize=0;swimlaneHead=0;swimlaneBody=0;top=0;left=0;bottom=0;right=0;collapsible=0;dropTarget=0;fillColor=none;points=[[0,0.5],[1,0.5]];portConstraint=eastwest;strokeColor=inherit;fontSize=16;" vertex="1" parent="ax5gozk2TbE6IYt9XCmW-39">
          <mxGeometry y="30" width="180" height="20" as="geometry" />
        </mxCell>
        <mxCell id="ax5gozk2TbE6IYt9XCmW-41" value="00" style="shape=partialRectangle;html=1;whiteSpace=wrap;connectable=0;fillColor=none;top=0;left=0;bottom=0;right=0;overflow=hidden;pointerEvents=1;strokeColor=inherit;fontSize=16;" vertex="1" parent="ax5gozk2TbE6IYt9XCmW-40">
          <mxGeometry width="80" height="20" as="geometry">
            <mxRectangle width="80" height="20" as="alternateBounds" />
          </mxGeometry>
        </mxCell>
        <mxCell id="ax5gozk2TbE6IYt9XCmW-42" value="0" style="shape=partialRectangle;html=1;whiteSpace=wrap;connectable=0;fillColor=none;top=0;left=0;bottom=0;right=0;align=left;spacingLeft=6;overflow=hidden;strokeColor=inherit;fontSize=16;" vertex="1" parent="ax5gozk2TbE6IYt9XCmW-40">
          <mxGeometry x="80" width="100" height="20" as="geometry">
            <mxRectangle width="100" height="20" as="alternateBounds" />
          </mxGeometry>
        </mxCell>
        <mxCell id="ax5gozk2TbE6IYt9XCmW-43" value="" style="shape=tableRow;horizontal=0;startSize=0;swimlaneHead=0;swimlaneBody=0;top=0;left=0;bottom=0;right=0;collapsible=0;dropTarget=0;fillColor=none;points=[[0,0.5],[1,0.5]];portConstraint=eastwest;strokeColor=inherit;fontSize=16;" vertex="1" parent="ax5gozk2TbE6IYt9XCmW-39">
          <mxGeometry y="50" width="180" height="30" as="geometry" />
        </mxCell>
        <mxCell id="ax5gozk2TbE6IYt9XCmW-44" value="01" style="shape=partialRectangle;html=1;whiteSpace=wrap;connectable=0;fillColor=none;top=0;left=0;bottom=0;right=0;overflow=hidden;strokeColor=inherit;fontSize=16;" vertex="1" parent="ax5gozk2TbE6IYt9XCmW-43">
          <mxGeometry width="80" height="30" as="geometry">
            <mxRectangle width="80" height="30" as="alternateBounds" />
          </mxGeometry>
        </mxCell>
        <mxCell id="ax5gozk2TbE6IYt9XCmW-45" value="1" style="shape=partialRectangle;html=1;whiteSpace=wrap;connectable=0;fillColor=none;top=0;left=0;bottom=0;right=0;align=left;spacingLeft=6;overflow=hidden;strokeColor=inherit;fontSize=16;" vertex="1" parent="ax5gozk2TbE6IYt9XCmW-43">
          <mxGeometry x="80" width="100" height="30" as="geometry">
            <mxRectangle width="100" height="30" as="alternateBounds" />
          </mxGeometry>
        </mxCell>
        <mxCell id="ax5gozk2TbE6IYt9XCmW-46" value="" style="shape=tableRow;horizontal=0;startSize=0;swimlaneHead=0;swimlaneBody=0;top=0;left=0;bottom=0;right=0;collapsible=0;dropTarget=0;fillColor=none;points=[[0,0.5],[1,0.5]];portConstraint=eastwest;strokeColor=inherit;fontSize=16;" vertex="1" parent="ax5gozk2TbE6IYt9XCmW-39">
          <mxGeometry y="80" width="180" height="30" as="geometry" />
        </mxCell>
        <mxCell id="ax5gozk2TbE6IYt9XCmW-47" value="10" style="shape=partialRectangle;html=1;whiteSpace=wrap;connectable=0;fillColor=none;top=0;left=0;bottom=0;right=0;overflow=hidden;strokeColor=inherit;fontSize=16;" vertex="1" parent="ax5gozk2TbE6IYt9XCmW-46">
          <mxGeometry width="80" height="30" as="geometry">
            <mxRectangle width="80" height="30" as="alternateBounds" />
          </mxGeometry>
        </mxCell>
        <mxCell id="ax5gozk2TbE6IYt9XCmW-48" value="-1" style="shape=partialRectangle;html=1;whiteSpace=wrap;connectable=0;fillColor=none;top=0;left=0;bottom=0;right=0;align=left;spacingLeft=6;overflow=hidden;strokeColor=inherit;fontSize=16;" vertex="1" parent="ax5gozk2TbE6IYt9XCmW-46">
          <mxGeometry x="80" width="100" height="30" as="geometry">
            <mxRectangle width="100" height="30" as="alternateBounds" />
          </mxGeometry>
        </mxCell>
        <mxCell id="5OUNu-mXDKXS3Fbgeo7Q-1" style="edgeStyle=orthogonalEdgeStyle;rounded=0;orthogonalLoop=1;jettySize=auto;html=1;exitX=0.5;exitY=1;exitDx=0;exitDy=0;" edge="1" parent="1" source="5OUNu-mXDKXS3Fbgeo7Q-2" target="5OUNu-mXDKXS3Fbgeo7Q-4">
          <mxGeometry relative="1" as="geometry" />
        </mxCell>
        <mxCell id="5OUNu-mXDKXS3Fbgeo7Q-2" value="Clear all&lt;div&gt;Done = 0&lt;/div&gt;" style="rounded=0;whiteSpace=wrap;html=1;" vertex="1" parent="1">
          <mxGeometry x="940" y="730" width="80" height="40" as="geometry" />
        </mxCell>
        <mxCell id="5OUNu-mXDKXS3Fbgeo7Q-3" style="edgeStyle=orthogonalEdgeStyle;rounded=0;orthogonalLoop=1;jettySize=auto;html=1;exitX=0.5;exitY=1;exitDx=0;exitDy=0;" edge="1" parent="1" source="5OUNu-mXDKXS3Fbgeo7Q-4" target="5OUNu-mXDKXS3Fbgeo7Q-6">
          <mxGeometry relative="1" as="geometry" />
        </mxCell>
        <mxCell id="5OUNu-mXDKXS3Fbgeo7Q-4" value="start&amp;nbsp;" style="rhombus;whiteSpace=wrap;html=1;" vertex="1" parent="1">
          <mxGeometry x="940" y="810" width="80" height="40" as="geometry" />
        </mxCell>
        <mxCell id="5OUNu-mXDKXS3Fbgeo7Q-5" style="edgeStyle=orthogonalEdgeStyle;rounded=0;orthogonalLoop=1;jettySize=auto;html=1;exitX=0.5;exitY=1;exitDx=0;exitDy=0;entryX=0.5;entryY=0;entryDx=0;entryDy=0;" edge="1" parent="1" source="5OUNu-mXDKXS3Fbgeo7Q-6" target="5OUNu-mXDKXS3Fbgeo7Q-9">
          <mxGeometry relative="1" as="geometry" />
        </mxCell>
        <mxCell id="5OUNu-mXDKXS3Fbgeo7Q-6" value="Load" style="rounded=0;whiteSpace=wrap;html=1;" vertex="1" parent="1">
          <mxGeometry x="941" y="890" width="79" height="40" as="geometry" />
        </mxCell>
        <mxCell id="5OUNu-mXDKXS3Fbgeo7Q-53" style="edgeStyle=orthogonalEdgeStyle;rounded=0;orthogonalLoop=1;jettySize=auto;html=1;exitX=0.5;exitY=1;exitDx=0;exitDy=0;entryX=0.5;entryY=0;entryDx=0;entryDy=0;" edge="1" parent="1" source="5OUNu-mXDKXS3Fbgeo7Q-9" target="5OUNu-mXDKXS3Fbgeo7Q-29">
          <mxGeometry relative="1" as="geometry" />
        </mxCell>
        <mxCell id="5OUNu-mXDKXS3Fbgeo7Q-9" value="Z_i" style="rhombus;whiteSpace=wrap;html=1;" vertex="1" parent="1">
          <mxGeometry x="940" y="970" width="80" height="40" as="geometry" />
        </mxCell>
        <mxCell id="5OUNu-mXDKXS3Fbgeo7Q-19" value="1" style="text;html=1;align=center;verticalAlign=middle;resizable=0;points=[];autosize=1;strokeColor=none;fillColor=none;" vertex="1" parent="1">
          <mxGeometry x="1090" y="810" width="30" height="30" as="geometry" />
        </mxCell>
        <mxCell id="5OUNu-mXDKXS3Fbgeo7Q-20" value="2" style="text;html=1;align=center;verticalAlign=middle;resizable=0;points=[];autosize=1;strokeColor=none;fillColor=none;" vertex="1" parent="1">
          <mxGeometry x="1080" y="890" width="30" height="30" as="geometry" />
        </mxCell>
        <mxCell id="5OUNu-mXDKXS3Fbgeo7Q-21" value="3" style="text;html=1;align=center;verticalAlign=middle;resizable=0;points=[];autosize=1;strokeColor=none;fillColor=none;" vertex="1" parent="1">
          <mxGeometry x="1080" y="970" width="30" height="30" as="geometry" />
        </mxCell>
        <mxCell id="5OUNu-mXDKXS3Fbgeo7Q-22" value="4" style="text;html=1;align=center;verticalAlign=middle;resizable=0;points=[];autosize=1;strokeColor=none;fillColor=none;" vertex="1" parent="1">
          <mxGeometry x="1110" y="1055" width="30" height="30" as="geometry" />
        </mxCell>
        <mxCell id="5OUNu-mXDKXS3Fbgeo7Q-23" value="5" style="text;html=1;align=center;verticalAlign=middle;resizable=0;points=[];autosize=1;strokeColor=none;fillColor=none;" vertex="1" parent="1">
          <mxGeometry x="1110" y="1135" width="30" height="30" as="geometry" />
        </mxCell>
        <mxCell id="5OUNu-mXDKXS3Fbgeo7Q-30" style="edgeStyle=orthogonalEdgeStyle;rounded=0;orthogonalLoop=1;jettySize=auto;html=1;exitX=0.5;exitY=1;exitDx=0;exitDy=0;" edge="1" parent="1" source="5OUNu-mXDKXS3Fbgeo7Q-29" target="5OUNu-mXDKXS3Fbgeo7Q-32">
          <mxGeometry relative="1" as="geometry">
            <mxPoint x="980" y="1120" as="targetPoint" />
          </mxGeometry>
        </mxCell>
        <mxCell id="5OUNu-mXDKXS3Fbgeo7Q-33" style="edgeStyle=orthogonalEdgeStyle;rounded=0;orthogonalLoop=1;jettySize=auto;html=1;exitX=1;exitY=0.5;exitDx=0;exitDy=0;" edge="1" parent="1" source="5OUNu-mXDKXS3Fbgeo7Q-29" target="5OUNu-mXDKXS3Fbgeo7Q-34">
          <mxGeometry relative="1" as="geometry">
            <mxPoint x="1040" y="1210" as="targetPoint" />
            <Array as="points">
              <mxPoint x="1040" y="1070" />
              <mxPoint x="1040" y="1190" />
              <mxPoint x="980" y="1190" />
            </Array>
          </mxGeometry>
        </mxCell>
        <mxCell id="5OUNu-mXDKXS3Fbgeo7Q-29" value="bit = 2" style="rhombus;whiteSpace=wrap;html=1;" vertex="1" parent="1">
          <mxGeometry x="940" y="1050" width="80" height="40" as="geometry" />
        </mxCell>
        <mxCell id="5OUNu-mXDKXS3Fbgeo7Q-54" style="edgeStyle=orthogonalEdgeStyle;rounded=0;orthogonalLoop=1;jettySize=auto;html=1;exitX=0;exitY=0.5;exitDx=0;exitDy=0;entryX=0;entryY=0.5;entryDx=0;entryDy=0;" edge="1" parent="1" source="5OUNu-mXDKXS3Fbgeo7Q-32" target="5OUNu-mXDKXS3Fbgeo7Q-9">
          <mxGeometry relative="1" as="geometry" />
        </mxCell>
        <mxCell id="5OUNu-mXDKXS3Fbgeo7Q-32" value="csd[i] = 0&lt;div&gt;enable_carry&lt;/div&gt;" style="rounded=0;whiteSpace=wrap;html=1;" vertex="1" parent="1">
          <mxGeometry x="940" y="1130" width="80" height="40" as="geometry" />
        </mxCell>
        <mxCell id="5OUNu-mXDKXS3Fbgeo7Q-35" style="edgeStyle=orthogonalEdgeStyle;rounded=0;orthogonalLoop=1;jettySize=auto;html=1;exitX=0.5;exitY=1;exitDx=0;exitDy=0;" edge="1" parent="1" source="5OUNu-mXDKXS3Fbgeo7Q-34" target="5OUNu-mXDKXS3Fbgeo7Q-36">
          <mxGeometry relative="1" as="geometry">
            <mxPoint x="980" y="1290" as="targetPoint" />
          </mxGeometry>
        </mxCell>
        <mxCell id="5OUNu-mXDKXS3Fbgeo7Q-43" style="edgeStyle=orthogonalEdgeStyle;rounded=0;orthogonalLoop=1;jettySize=auto;html=1;exitX=1;exitY=0.5;exitDx=0;exitDy=0;" edge="1" parent="1" source="5OUNu-mXDKXS3Fbgeo7Q-34" target="5OUNu-mXDKXS3Fbgeo7Q-44">
          <mxGeometry relative="1" as="geometry">
            <mxPoint x="989.9999999999998" y="1530" as="targetPoint" />
            <Array as="points">
              <mxPoint x="1060" y="1230" />
              <mxPoint x="1060" y="1510" />
              <mxPoint x="980" y="1510" />
            </Array>
          </mxGeometry>
        </mxCell>
        <mxCell id="5OUNu-mXDKXS3Fbgeo7Q-34" value="bit = 1" style="rhombus;whiteSpace=wrap;html=1;" vertex="1" parent="1">
          <mxGeometry x="940" y="1210" width="80" height="40" as="geometry" />
        </mxCell>
        <mxCell id="5OUNu-mXDKXS3Fbgeo7Q-38" style="edgeStyle=orthogonalEdgeStyle;rounded=0;orthogonalLoop=1;jettySize=auto;html=1;exitX=0.5;exitY=1;exitDx=0;exitDy=0;entryX=0.5;entryY=0;entryDx=0;entryDy=0;" edge="1" parent="1" source="5OUNu-mXDKXS3Fbgeo7Q-36" target="5OUNu-mXDKXS3Fbgeo7Q-37">
          <mxGeometry relative="1" as="geometry" />
        </mxCell>
        <mxCell id="5OUNu-mXDKXS3Fbgeo7Q-42" style="edgeStyle=orthogonalEdgeStyle;rounded=0;orthogonalLoop=1;jettySize=auto;html=1;exitX=1;exitY=0.5;exitDx=0;exitDy=0;" edge="1" parent="1" source="5OUNu-mXDKXS3Fbgeo7Q-36" target="5OUNu-mXDKXS3Fbgeo7Q-40">
          <mxGeometry relative="1" as="geometry">
            <Array as="points">
              <mxPoint x="1040" y="1310" />
              <mxPoint x="1040" y="1430" />
              <mxPoint x="981" y="1430" />
            </Array>
          </mxGeometry>
        </mxCell>
        <mxCell id="5OUNu-mXDKXS3Fbgeo7Q-36" value="i &amp;gt; 0&lt;div&gt;FX[i-1] = 1&lt;/div&gt;" style="rhombus;whiteSpace=wrap;html=1;" vertex="1" parent="1">
          <mxGeometry x="940" y="1290" width="80" height="40" as="geometry" />
        </mxCell>
        <mxCell id="5OUNu-mXDKXS3Fbgeo7Q-55" style="edgeStyle=orthogonalEdgeStyle;rounded=0;orthogonalLoop=1;jettySize=auto;html=1;exitX=0;exitY=0.5;exitDx=0;exitDy=0;" edge="1" parent="1" source="5OUNu-mXDKXS3Fbgeo7Q-37">
          <mxGeometry relative="1" as="geometry">
            <mxPoint x="890" y="990" as="targetPoint" />
          </mxGeometry>
        </mxCell>
        <mxCell id="5OUNu-mXDKXS3Fbgeo7Q-37" value="csd[i] = -1&lt;div&gt;enable_carry&lt;/div&gt;" style="rounded=0;whiteSpace=wrap;html=1;" vertex="1" parent="1">
          <mxGeometry x="940" y="1370" width="80" height="40" as="geometry" />
        </mxCell>
        <mxCell id="5OUNu-mXDKXS3Fbgeo7Q-56" style="edgeStyle=orthogonalEdgeStyle;rounded=0;orthogonalLoop=1;jettySize=auto;html=1;exitX=0;exitY=0.5;exitDx=0;exitDy=0;" edge="1" parent="1" source="5OUNu-mXDKXS3Fbgeo7Q-40">
          <mxGeometry relative="1" as="geometry">
            <mxPoint x="870" y="1000" as="targetPoint" />
          </mxGeometry>
        </mxCell>
        <mxCell id="5OUNu-mXDKXS3Fbgeo7Q-40" value="csd[i] = 1&lt;div&gt;enable_carry&lt;/div&gt;" style="rounded=0;whiteSpace=wrap;html=1;" vertex="1" parent="1">
          <mxGeometry x="941" y="1450" width="80" height="40" as="geometry" />
        </mxCell>
        <mxCell id="5OUNu-mXDKXS3Fbgeo7Q-57" style="edgeStyle=orthogonalEdgeStyle;rounded=0;orthogonalLoop=1;jettySize=auto;html=1;exitX=0;exitY=0.5;exitDx=0;exitDy=0;" edge="1" parent="1" source="5OUNu-mXDKXS3Fbgeo7Q-44">
          <mxGeometry relative="1" as="geometry">
            <mxPoint x="840" y="1000" as="targetPoint" />
          </mxGeometry>
        </mxCell>
        <mxCell id="5OUNu-mXDKXS3Fbgeo7Q-44" value="csd[i] = 0&lt;div&gt;enable_carry&lt;/div&gt;" style="rounded=0;whiteSpace=wrap;html=1;" vertex="1" parent="1">
          <mxGeometry x="940" y="1530" width="80" height="40" as="geometry" />
        </mxCell>
        <mxCell id="5OUNu-mXDKXS3Fbgeo7Q-46" value="6" style="text;html=1;align=center;verticalAlign=middle;resizable=0;points=[];autosize=1;strokeColor=none;fillColor=none;" vertex="1" parent="1">
          <mxGeometry x="1130" y="1215" width="30" height="30" as="geometry" />
        </mxCell>
        <mxCell id="5OUNu-mXDKXS3Fbgeo7Q-47" value="7" style="text;html=1;align=center;verticalAlign=middle;resizable=0;points=[];autosize=1;strokeColor=none;fillColor=none;" vertex="1" parent="1">
          <mxGeometry x="1120" y="1295" width="30" height="30" as="geometry" />
        </mxCell>
        <mxCell id="5OUNu-mXDKXS3Fbgeo7Q-48" value="8" style="text;html=1;align=center;verticalAlign=middle;resizable=0;points=[];autosize=1;strokeColor=none;fillColor=none;" vertex="1" parent="1">
          <mxGeometry x="1120" y="1375" width="30" height="30" as="geometry" />
        </mxCell>
        <mxCell id="5OUNu-mXDKXS3Fbgeo7Q-49" value="9" style="text;html=1;align=center;verticalAlign=middle;resizable=0;points=[];autosize=1;strokeColor=none;fillColor=none;" vertex="1" parent="1">
          <mxGeometry x="1120" y="1455" width="30" height="30" as="geometry" />
        </mxCell>
        <mxCell id="5OUNu-mXDKXS3Fbgeo7Q-50" value="10" style="text;html=1;align=center;verticalAlign=middle;resizable=0;points=[];autosize=1;strokeColor=none;fillColor=none;" vertex="1" parent="1">
          <mxGeometry x="1115" y="1535" width="40" height="30" as="geometry" />
        </mxCell>
        <mxCell id="5OUNu-mXDKXS3Fbgeo7Q-58" value="1" style="text;html=1;align=center;verticalAlign=middle;resizable=0;points=[];autosize=1;strokeColor=none;fillColor=none;" vertex="1" parent="1">
          <mxGeometry x="1185" y="1128" width="30" height="30" as="geometry" />
        </mxCell>
        <mxCell id="5OUNu-mXDKXS3Fbgeo7Q-59" value="1" style="text;html=1;align=center;verticalAlign=middle;resizable=0;points=[];autosize=1;strokeColor=none;fillColor=none;" vertex="1" parent="1">
          <mxGeometry x="1185" y="1378" width="30" height="30" as="geometry" />
        </mxCell>
        <mxCell id="5OUNu-mXDKXS3Fbgeo7Q-74" value="output" style="whiteSpace=wrap;html=1;aspect=fixed;" vertex="1" parent="1">
          <mxGeometry x="-570" y="1780" width="80" height="80" as="geometry" />
        </mxCell>
        <mxCell id="5OUNu-mXDKXS3Fbgeo7Q-100" style="edgeStyle=orthogonalEdgeStyle;rounded=0;orthogonalLoop=1;jettySize=auto;html=1;exitX=0.5;exitY=1;exitDx=0;exitDy=0;entryX=0.5;entryY=0;entryDx=0;entryDy=0;" edge="1" parent="1" source="5OUNu-mXDKXS3Fbgeo7Q-89" target="5OUNu-mXDKXS3Fbgeo7Q-74">
          <mxGeometry relative="1" as="geometry" />
        </mxCell>
        <mxCell id="5OUNu-mXDKXS3Fbgeo7Q-142" style="edgeStyle=orthogonalEdgeStyle;rounded=0;orthogonalLoop=1;jettySize=auto;html=1;exitX=0.25;exitY=0;exitDx=0;exitDy=0;entryX=0.25;entryY=0;entryDx=0;entryDy=0;" edge="1" parent="1" target="5OUNu-mXDKXS3Fbgeo7Q-89">
          <mxGeometry relative="1" as="geometry">
            <mxPoint x="-620" y="1530" as="sourcePoint" />
          </mxGeometry>
        </mxCell>
        <mxCell id="5OUNu-mXDKXS3Fbgeo7Q-143" style="edgeStyle=orthogonalEdgeStyle;rounded=0;orthogonalLoop=1;jettySize=auto;html=1;exitX=0.75;exitY=0;exitDx=0;exitDy=0;entryX=0.75;entryY=0;entryDx=0;entryDy=0;" edge="1" parent="1" target="5OUNu-mXDKXS3Fbgeo7Q-89">
          <mxGeometry relative="1" as="geometry">
            <mxPoint x="-410" y="1530" as="sourcePoint" />
          </mxGeometry>
        </mxCell>
        <mxCell id="5OUNu-mXDKXS3Fbgeo7Q-89" value="multiplier" style="rounded=0;whiteSpace=wrap;html=1;" vertex="1" parent="1">
          <mxGeometry x="-570" y="1620" width="80" height="40" as="geometry" />
        </mxCell>
        <mxCell id="5OUNu-mXDKXS3Fbgeo7Q-98" style="edgeStyle=orthogonalEdgeStyle;rounded=0;orthogonalLoop=1;jettySize=auto;html=1;exitX=0.5;exitY=1;exitDx=0;exitDy=0;" edge="1" parent="1" source="5OUNu-mXDKXS3Fbgeo7Q-97" target="5OUNu-mXDKXS3Fbgeo7Q-99">
          <mxGeometry relative="1" as="geometry">
            <mxPoint x="439.6666666666665" y="1270" as="targetPoint" />
          </mxGeometry>
        </mxCell>
        <mxCell id="5OUNu-mXDKXS3Fbgeo7Q-97" value="" style="rhombus;whiteSpace=wrap;html=1;" vertex="1" parent="1">
          <mxGeometry x="400" y="1200" width="80" height="40" as="geometry" />
        </mxCell>
        <mxCell id="5OUNu-mXDKXS3Fbgeo7Q-99" value="" style="rhombus;whiteSpace=wrap;html=1;" vertex="1" parent="1">
          <mxGeometry x="400" y="1280" width="80" height="40" as="geometry" />
        </mxCell>
        <mxCell id="5OUNu-mXDKXS3Fbgeo7Q-108" style="edgeStyle=orthogonalEdgeStyle;rounded=0;orthogonalLoop=1;jettySize=auto;html=1;exitX=0.5;exitY=1;exitDx=0;exitDy=0;entryX=1;entryY=0.5;entryDx=0;entryDy=0;" edge="1" parent="1" source="5OUNu-mXDKXS3Fbgeo7Q-101" target="5OUNu-mXDKXS3Fbgeo7Q-74">
          <mxGeometry relative="1" as="geometry" />
        </mxCell>
        <mxCell id="5OUNu-mXDKXS3Fbgeo7Q-109" style="edgeStyle=orthogonalEdgeStyle;rounded=0;orthogonalLoop=1;jettySize=auto;html=1;exitX=0.25;exitY=0;exitDx=0;exitDy=0;entryX=0.25;entryY=0;entryDx=0;entryDy=0;" edge="1" parent="1" target="5OUNu-mXDKXS3Fbgeo7Q-101">
          <mxGeometry relative="1" as="geometry">
            <mxPoint x="-180.29411764705856" y="1290" as="sourcePoint" />
          </mxGeometry>
        </mxCell>
        <mxCell id="5OUNu-mXDKXS3Fbgeo7Q-111" style="edgeStyle=orthogonalEdgeStyle;rounded=0;orthogonalLoop=1;jettySize=auto;html=1;exitX=0.75;exitY=0;exitDx=0;exitDy=0;entryX=0.75;entryY=0;entryDx=0;entryDy=0;" edge="1" parent="1" target="5OUNu-mXDKXS3Fbgeo7Q-101">
          <mxGeometry relative="1" as="geometry">
            <mxPoint x="-139.66666666666674" y="1290" as="sourcePoint" />
          </mxGeometry>
        </mxCell>
        <mxCell id="5OUNu-mXDKXS3Fbgeo7Q-101" value="&lt;span style=&quot;text-wrap-mode: nowrap;&quot;&gt;j*(M-n+1)&lt;/span&gt;&lt;span style=&quot;text-wrap-mode: nowrap; background-color: transparent; color: light-dark(rgb(0, 0, 0), rgb(255, 255, 255));&quot;&gt;&amp;nbsp;+ i&lt;/span&gt;" style="rounded=0;whiteSpace=wrap;html=1;" vertex="1" parent="1">
          <mxGeometry x="-200" y="1520" width="80" height="40" as="geometry" />
        </mxCell>
        <mxCell id="5OUNu-mXDKXS3Fbgeo7Q-113" value="" style="rounded=0;whiteSpace=wrap;html=1;direction=south;" vertex="1" parent="1">
          <mxGeometry x="-740" y="1440" width="10" height="80" as="geometry" />
        </mxCell>
        <mxCell id="5OUNu-mXDKXS3Fbgeo7Q-122" value="" style="rounded=0;whiteSpace=wrap;html=1;direction=south;" vertex="1" parent="1">
          <mxGeometry x="-720" y="1440" width="10" height="80" as="geometry" />
        </mxCell>
        <mxCell id="5OUNu-mXDKXS3Fbgeo7Q-123" value="" style="rounded=0;whiteSpace=wrap;html=1;direction=south;" vertex="1" parent="1">
          <mxGeometry x="-700" y="1440" width="10" height="80" as="geometry" />
        </mxCell>
        <mxCell id="5OUNu-mXDKXS3Fbgeo7Q-124" value="" style="rounded=0;whiteSpace=wrap;html=1;direction=south;" vertex="1" parent="1">
          <mxGeometry x="-680" y="1440" width="10" height="80" as="geometry" />
        </mxCell>
        <mxCell id="5OUNu-mXDKXS3Fbgeo7Q-125" value="" style="rounded=0;whiteSpace=wrap;html=1;direction=south;" vertex="1" parent="1">
          <mxGeometry x="-660" y="1440" width="10" height="80" as="geometry" />
        </mxCell>
        <mxCell id="5OUNu-mXDKXS3Fbgeo7Q-126" value="" style="rounded=0;whiteSpace=wrap;html=1;direction=south;" vertex="1" parent="1">
          <mxGeometry x="-640" y="1440" width="10" height="80" as="geometry" />
        </mxCell>
        <mxCell id="5OUNu-mXDKXS3Fbgeo7Q-127" value="" style="rounded=0;whiteSpace=wrap;html=1;direction=south;" vertex="1" parent="1">
          <mxGeometry x="-620" y="1440" width="10" height="80" as="geometry" />
        </mxCell>
        <mxCell id="5OUNu-mXDKXS3Fbgeo7Q-128" value="" style="rounded=0;whiteSpace=wrap;html=1;direction=south;" vertex="1" parent="1">
          <mxGeometry x="-600" y="1440" width="10" height="80" as="geometry" />
        </mxCell>
        <mxCell id="5OUNu-mXDKXS3Fbgeo7Q-129" value="" style="rounded=0;whiteSpace=wrap;html=1;direction=south;" vertex="1" parent="1">
          <mxGeometry x="-580" y="1440" width="10" height="80" as="geometry" />
        </mxCell>
        <mxCell id="5OUNu-mXDKXS3Fbgeo7Q-133" value="" style="rounded=0;whiteSpace=wrap;html=1;direction=south;" vertex="1" parent="1">
          <mxGeometry x="-493" y="1440" width="10" height="80" as="geometry" />
        </mxCell>
        <mxCell id="5OUNu-mXDKXS3Fbgeo7Q-134" value="" style="rounded=0;whiteSpace=wrap;html=1;direction=south;" vertex="1" parent="1">
          <mxGeometry x="-473" y="1440" width="10" height="80" as="geometry" />
        </mxCell>
        <mxCell id="5OUNu-mXDKXS3Fbgeo7Q-135" value="" style="rounded=0;whiteSpace=wrap;html=1;direction=south;" vertex="1" parent="1">
          <mxGeometry x="-453" y="1440" width="10" height="80" as="geometry" />
        </mxCell>
        <mxCell id="5OUNu-mXDKXS3Fbgeo7Q-136" value="" style="rounded=0;whiteSpace=wrap;html=1;direction=south;" vertex="1" parent="1">
          <mxGeometry x="-433" y="1440" width="10" height="80" as="geometry" />
        </mxCell>
        <mxCell id="5OUNu-mXDKXS3Fbgeo7Q-137" value="" style="rounded=0;whiteSpace=wrap;html=1;direction=south;" vertex="1" parent="1">
          <mxGeometry x="-413" y="1440" width="10" height="80" as="geometry" />
        </mxCell>
        <mxCell id="5OUNu-mXDKXS3Fbgeo7Q-138" value="" style="rounded=0;whiteSpace=wrap;html=1;direction=south;" vertex="1" parent="1">
          <mxGeometry x="-393" y="1440" width="10" height="80" as="geometry" />
        </mxCell>
        <mxCell id="5OUNu-mXDKXS3Fbgeo7Q-139" value="" style="rounded=0;whiteSpace=wrap;html=1;direction=south;" vertex="1" parent="1">
          <mxGeometry x="-373" y="1440" width="10" height="80" as="geometry" />
        </mxCell>
        <mxCell id="5OUNu-mXDKXS3Fbgeo7Q-140" value="" style="rounded=0;whiteSpace=wrap;html=1;direction=south;" vertex="1" parent="1">
          <mxGeometry x="-353" y="1440" width="10" height="80" as="geometry" />
        </mxCell>
        <mxCell id="5OUNu-mXDKXS3Fbgeo7Q-141" value="" style="rounded=0;whiteSpace=wrap;html=1;direction=south;" vertex="1" parent="1">
          <mxGeometry x="-333" y="1440" width="10" height="80" as="geometry" />
        </mxCell>
        <mxCell id="5OUNu-mXDKXS3Fbgeo7Q-151" value="ASD" style="rounded=0;whiteSpace=wrap;html=1;" vertex="1" parent="1">
          <mxGeometry x="-383" y="1080" width="83" height="40" as="geometry" />
        </mxCell>
        <mxCell id="5OUNu-mXDKXS3Fbgeo7Q-153" style="edgeStyle=orthogonalEdgeStyle;rounded=0;orthogonalLoop=1;jettySize=auto;html=1;exitX=0.5;exitY=1;exitDx=0;exitDy=0;" edge="1" parent="1" source="5OUNu-mXDKXS3Fbgeo7Q-152" target="5OUNu-mXDKXS3Fbgeo7Q-151">
          <mxGeometry relative="1" as="geometry" />
        </mxCell>
        <mxCell id="5OUNu-mXDKXS3Fbgeo7Q-152" value="CSD" style="rounded=0;whiteSpace=wrap;html=1;" vertex="1" parent="1">
          <mxGeometry x="-383" y="1000" width="83" height="40" as="geometry" />
        </mxCell>
        <mxCell id="5OUNu-mXDKXS3Fbgeo7Q-156" style="edgeStyle=orthogonalEdgeStyle;rounded=0;orthogonalLoop=1;jettySize=auto;html=1;exitX=0.5;exitY=1;exitDx=0;exitDy=0;entryX=0.5;entryY=0;entryDx=0;entryDy=0;" edge="1" parent="1" source="5OUNu-mXDKXS3Fbgeo7Q-155" target="5OUNu-mXDKXS3Fbgeo7Q-152">
          <mxGeometry relative="1" as="geometry" />
        </mxCell>
        <mxCell id="5OUNu-mXDKXS3Fbgeo7Q-155" value="FX" style="rounded=0;whiteSpace=wrap;html=1;" vertex="1" parent="1">
          <mxGeometry x="-383" y="920" width="83" height="40" as="geometry" />
        </mxCell>
        <mxCell id="5OUNu-mXDKXS3Fbgeo7Q-157" value="j*M+i+1" style="text;html=1;align=center;verticalAlign=middle;resizable=0;points=[];autosize=1;strokeColor=none;fillColor=none;" vertex="1" parent="1">
          <mxGeometry x="-845" y="1250" width="60" height="30" as="geometry" />
        </mxCell>
        <mxCell id="5OUNu-mXDKXS3Fbgeo7Q-158" value="j*M+i+2" style="text;html=1;align=center;verticalAlign=middle;resizable=0;points=[];autosize=1;strokeColor=none;fillColor=none;" vertex="1" parent="1">
          <mxGeometry x="-845" y="1270" width="60" height="30" as="geometry" />
        </mxCell>
        <mxCell id="5OUNu-mXDKXS3Fbgeo7Q-163" value="j*M+i+3" style="text;html=1;align=center;verticalAlign=middle;resizable=0;points=[];autosize=1;strokeColor=none;fillColor=none;" vertex="1" parent="1">
          <mxGeometry x="-845" y="1288" width="60" height="30" as="geometry" />
        </mxCell>
        <mxCell id="5OUNu-mXDKXS3Fbgeo7Q-164" value="(j+1)*M+i+1" style="text;html=1;align=center;verticalAlign=middle;resizable=0;points=[];autosize=1;strokeColor=none;fillColor=none;" vertex="1" parent="1">
          <mxGeometry x="-860" y="1310" width="90" height="30" as="geometry" />
        </mxCell>
        <mxCell id="5OUNu-mXDKXS3Fbgeo7Q-165" value="(j+1)*M+i+2" style="text;html=1;align=center;verticalAlign=middle;resizable=0;points=[];autosize=1;strokeColor=none;fillColor=none;" vertex="1" parent="1">
          <mxGeometry x="-860" y="1330" width="90" height="30" as="geometry" />
        </mxCell>
        <mxCell id="5OUNu-mXDKXS3Fbgeo7Q-166" value="(j+1)*M+i+3" style="text;html=1;align=center;verticalAlign=middle;resizable=0;points=[];autosize=1;strokeColor=none;fillColor=none;" vertex="1" parent="1">
          <mxGeometry x="-860" y="1348" width="90" height="30" as="geometry" />
        </mxCell>
        <mxCell id="5OUNu-mXDKXS3Fbgeo7Q-167" value="(j+2)*M+i+1" style="text;html=1;align=center;verticalAlign=middle;resizable=0;points=[];autosize=1;strokeColor=none;fillColor=none;" vertex="1" parent="1">
          <mxGeometry x="-860" y="1370" width="90" height="30" as="geometry" />
        </mxCell>
        <mxCell id="5OUNu-mXDKXS3Fbgeo7Q-168" value="(j+2)*M+i+2" style="text;html=1;align=center;verticalAlign=middle;resizable=0;points=[];autosize=1;strokeColor=none;fillColor=none;" vertex="1" parent="1">
          <mxGeometry x="-860" y="1390" width="90" height="30" as="geometry" />
        </mxCell>
        <mxCell id="5OUNu-mXDKXS3Fbgeo7Q-169" value="(j+2)*M+i+3" style="text;html=1;align=center;verticalAlign=middle;resizable=0;points=[];autosize=1;strokeColor=none;fillColor=none;" vertex="1" parent="1">
          <mxGeometry x="-860" y="1408" width="90" height="30" as="geometry" />
        </mxCell>
      </root>
    </mxGraphModel>
  </diagram>
</mxfile>
